<svg width="329" height="175" viewBox="0 0 329 175" fill="none" xmlns="http://www.w3.org/2000/svg">
<path d="M3.33 13V3.83H6.228C6.9 3.83 7.49267 3.91867 8.006 4.096C8.52867 4.264 8.93467 4.55333 9.224 4.964C9.51333 5.36533 9.658 5.90667 9.658 6.588C9.658 7.25067 9.50867 7.79667 9.21 8.226C8.92067 8.65533 8.51467 8.97733 7.992 9.192C7.47867 9.39733 6.89067 9.5 6.228 9.5H4.73V13H3.33ZM4.73 8.366H6.088C6.83467 8.366 7.38533 8.22133 7.74 7.932C8.09467 7.64267 8.272 7.19467 8.272 6.588C8.272 5.972 8.09 5.54733 7.726 5.314C7.362 5.07133 6.816 4.95 6.088 4.95H4.73V8.366ZM12.3265 13V6.154H13.4745L13.5865 7.75H13.6285C13.9832 7.19 14.4172 6.756 14.9305 6.448C15.4439 6.14 16.0039 5.986 16.6105 5.986C16.8719 5.986 17.1099 6.00933 17.3245 6.056C17.5392 6.10267 17.7492 6.17267 17.9545 6.266L17.6465 7.456C17.4132 7.372 17.2125 7.316 17.0445 7.288C16.8765 7.25067 16.6619 7.232 16.4005 7.232C15.9059 7.232 15.4299 7.372 14.9725 7.652C14.5152 7.932 14.0952 8.41733 13.7125 9.108V13H12.3265ZM22.9891 13.168C22.3917 13.168 21.8317 13.028 21.3091 12.748C20.7957 12.468 20.3757 12.062 20.0491 11.53C19.7317 10.9887 19.5731 10.34 19.5731 9.584C19.5731 8.828 19.7317 8.184 20.0491 7.652C20.3757 7.11067 20.7957 6.7 21.3091 6.42C21.8317 6.13067 22.3917 5.986 22.9891 5.986C23.5864 5.986 24.1417 6.13067 24.6551 6.42C25.1777 6.7 25.5977 7.11067 25.9151 7.652C26.2417 8.184 26.4051 8.828 26.4051 9.584C26.4051 10.34 26.2417 10.9887 25.9151 11.53C25.5977 12.062 25.1777 12.468 24.6551 12.748C24.1417 13.028 23.5864 13.168 22.9891 13.168ZM22.9891 12.034C23.3904 12.034 23.7404 11.9313 24.0391 11.726C24.3377 11.5207 24.5664 11.236 24.7251 10.872C24.8931 10.508 24.9771 10.0787 24.9771 9.584C24.9771 9.09867 24.8931 8.674 24.7251 8.31C24.5664 7.93667 24.3377 7.64733 24.0391 7.442C23.7404 7.23667 23.3904 7.134 22.9891 7.134C22.5877 7.134 22.2377 7.23667 21.9391 7.442C21.6404 7.64733 21.4071 7.93667 21.2391 8.31C21.0804 8.674 21.0011 9.09867 21.0011 9.584C21.0011 10.0787 21.0804 10.508 21.2391 10.872C21.4071 11.236 21.6404 11.5207 21.9391 11.726C22.2377 11.9313 22.5877 12.034 22.9891 12.034ZM30.4736 13V5.678C30.4736 5.13667 30.5716 4.656 30.7676 4.236C30.9729 3.816 31.2809 3.48933 31.6916 3.256C32.1116 3.02267 32.6483 2.906 33.3016 2.906C33.6563 2.906 33.9969 2.93867 34.3236 3.004C34.6596 3.06933 34.9863 3.16733 35.3036 3.298L34.9956 4.32C34.7343 4.208 34.4823 4.12867 34.2396 4.082C34.0063 4.03533 33.7449 4.012 33.4556 4.012C32.8956 4.012 32.4849 4.15667 32.2236 4.446C31.9716 4.726 31.8456 5.12733 31.8456 5.65V13H30.4736ZM28.5556 7.274V6.224L30.5156 6.154H34.5756V7.274H28.5556ZM39.8621 13V7.274H36.7961V6.154H41.2481V13H39.8621ZM40.4361 4.824C40.1375 4.824 39.8901 4.73533 39.6941 4.558C39.4981 4.37133 39.4001 4.12867 39.4001 3.83C39.4001 3.53133 39.4981 3.29333 39.6941 3.116C39.8901 2.92933 40.1375 2.836 40.4361 2.836C40.7348 2.836 40.9821 2.92933 41.1781 3.116C41.3741 3.29333 41.4721 3.53133 41.4721 3.83C41.4721 4.12867 41.3741 4.37133 41.1781 4.558C40.9821 4.73533 40.7348 4.824 40.4361 4.824ZM49.4747 13.168C48.784 13.168 48.238 13.0467 47.8367 12.804C47.4447 12.5613 47.1647 12.2253 46.9967 11.796C46.8287 11.3667 46.7447 10.8673 46.7447 10.298V7.274H44.8687V6.238L46.8007 6.154L46.9827 3.998H48.1307V6.154H51.3647V7.274H48.1307V10.298C48.1307 10.6807 48.182 11.0073 48.2847 11.278C48.3873 11.5393 48.56 11.7353 48.8027 11.866C49.0453 11.9873 49.372 12.048 49.7827 12.048C50.0907 12.048 50.3707 12.0247 50.6227 11.978C50.8747 11.922 51.1173 11.852 51.3507 11.768L51.6307 12.776C51.3227 12.8787 50.9913 12.9673 50.6367 13.042C50.2913 13.126 49.904 13.168 49.4747 13.168ZM65.5917 13.168C64.8824 13.168 64.2431 13.028 63.6737 12.748C63.1044 12.468 62.6517 12.062 62.3157 11.53C61.9891 10.9887 61.8257 10.34 61.8257 9.584C61.8257 8.828 62.0031 8.184 62.3577 7.652C62.7124 7.11067 63.1791 6.7 63.7577 6.42C64.3457 6.13067 64.9851 5.986 65.6757 5.986C66.2357 5.986 66.7257 6.084 67.1457 6.28C67.5657 6.46667 67.9157 6.69533 68.1957 6.966L67.5237 7.848C67.2437 7.624 66.9591 7.45133 66.6697 7.33C66.3897 7.19933 66.0817 7.134 65.7457 7.134C65.2604 7.134 64.8264 7.23667 64.4437 7.442C64.0704 7.64733 63.7764 7.93667 63.5617 8.31C63.3564 8.674 63.2537 9.09867 63.2537 9.584C63.2537 10.0787 63.3564 10.508 63.5617 10.872C63.7671 11.236 64.0517 11.5207 64.4157 11.726C64.7891 11.9313 65.2184 12.034 65.7037 12.034C66.1144 12.034 66.4877 11.9547 66.8237 11.796C67.1597 11.6373 67.4631 11.446 67.7337 11.222L68.3357 12.118C67.9531 12.454 67.5237 12.7153 67.0477 12.902C66.5811 13.0793 66.0957 13.168 65.5917 13.168ZM70.3883 13V3.074H71.7743V5.706L71.6903 7.246H71.7323C72.0589 6.90067 72.4229 6.60667 72.8243 6.364C73.2256 6.112 73.6876 5.986 74.2103 5.986C75.0129 5.986 75.6009 6.22867 75.9743 6.714C76.3476 7.19 76.5343 7.87133 76.5343 8.758V13H75.1483V8.94C75.1483 8.34267 75.0363 7.904 74.8123 7.624C74.5976 7.33467 74.2336 7.19 73.7203 7.19C73.3563 7.19 73.0296 7.28333 72.7403 7.47C72.4509 7.64733 72.1289 7.918 71.7743 8.282V13H70.3883ZM80.9248 13.168C80.4861 13.168 80.0894 13.0887 79.7348 12.93C79.3894 12.762 79.1141 12.5333 78.9088 12.244C78.7128 11.9453 78.6148 11.5953 78.6148 11.194C78.6148 10.4287 78.9881 9.84533 79.7348 9.444C80.4908 9.04267 81.7274 8.77667 83.4448 8.646C83.4354 8.366 83.3701 8.10933 83.2488 7.876C83.1368 7.64267 82.9548 7.46067 82.7028 7.33C82.4601 7.19 82.1381 7.12 81.7368 7.12C81.4568 7.12 81.1814 7.15733 80.9108 7.232C80.6401 7.29733 80.3788 7.39067 80.1268 7.512C79.8748 7.63333 79.6368 7.75933 79.4128 7.89L78.8948 6.952C79.1468 6.80267 79.4361 6.65333 79.7628 6.504C80.0894 6.34533 80.4394 6.21933 80.8128 6.126C81.1954 6.03267 81.5828 5.986 81.9748 5.986C82.6094 5.986 83.1368 6.10267 83.5568 6.336C83.9768 6.56933 84.2941 6.90067 84.5088 7.33C84.7234 7.75933 84.8308 8.27733 84.8308 8.884V13H83.6968L83.5848 12.118H83.5428C83.1788 12.398 82.7681 12.6453 82.3108 12.86C81.8534 13.0653 81.3914 13.168 80.9248 13.168ZM81.3168 12.062C81.6808 12.062 82.0401 11.9827 82.3948 11.824C82.7494 11.6653 83.0994 11.4413 83.4448 11.152V9.528C82.5488 9.59333 81.8441 9.696 81.3308 9.836C80.8268 9.976 80.4721 10.1533 80.2668 10.368C80.0614 10.5733 79.9588 10.816 79.9588 11.096C79.9588 11.32 80.0194 11.5067 80.1408 11.656C80.2714 11.796 80.4394 11.8987 80.6448 11.964C80.8501 12.0293 81.0741 12.062 81.3168 12.062ZM87.8773 13V6.154H89.0253L89.1373 7.75H89.1793C89.534 7.19 89.968 6.756 90.4813 6.448C90.9946 6.14 91.5546 5.986 92.1613 5.986C92.4226 5.986 92.6606 6.00933 92.8753 6.056C93.09 6.10267 93.3 6.17267 93.5053 6.266L93.1973 7.456C92.964 7.372 92.7633 7.316 92.5953 7.288C92.4273 7.25067 92.2126 7.232 91.9513 7.232C91.4566 7.232 90.9806 7.372 90.5233 7.652C90.066 7.932 89.646 8.41733 89.2633 9.108V13H87.8773ZM99.8418 13.168C99.1512 13.168 98.6052 13.0467 98.2038 12.804C97.8118 12.5613 97.5318 12.2253 97.3638 11.796C97.1958 11.3667 97.1118 10.8673 97.1118 10.298V7.274H95.2358V6.238L97.1678 6.154L97.3498 3.998H98.4978V6.154H101.732V7.274H98.4978V10.298C98.4978 10.6807 98.5492 11.0073 98.6518 11.278C98.7545 11.5393 98.9272 11.7353 99.1698 11.866C99.4125 11.9873 99.7392 12.048 100.15 12.048C100.458 12.048 100.738 12.0247 100.99 11.978C101.242 11.922 101.485 11.852 101.718 11.768L101.998 12.776C101.69 12.8787 101.359 12.9673 101.004 13.042C100.659 13.126 100.271 13.168 99.8418 13.168Z" fill="#A6A0BB"/>
<path d="M169.588 112.144C169.004 112.144 168.496 112.056 168.064 111.88C167.632 111.704 167.3 111.46 167.068 111.148C166.844 110.828 166.732 110.464 166.732 110.056C166.732 109.744 166.796 109.472 166.924 109.24C167.06 109.008 167.236 108.808 167.452 108.64C167.668 108.464 167.908 108.312 168.172 108.184V108.136C167.852 107.912 167.584 107.656 167.368 107.368C167.16 107.08 167.056 106.736 167.056 106.336C167.056 105.904 167.164 105.532 167.38 105.22C167.604 104.9 167.912 104.656 168.304 104.488C168.696 104.32 169.144 104.236 169.648 104.236C170.408 104.236 171.012 104.428 171.46 104.812C171.916 105.188 172.144 105.692 172.144 106.324C172.144 106.676 172.036 106.996 171.82 107.284C171.604 107.564 171.348 107.8 171.052 107.992V108.04C171.324 108.168 171.568 108.324 171.784 108.508C172 108.684 172.168 108.896 172.288 109.144C172.416 109.392 172.48 109.688 172.48 110.032C172.48 110.432 172.368 110.792 172.144 111.112C171.92 111.424 171.592 111.676 171.16 111.868C170.736 112.052 170.212 112.144 169.588 112.144ZM170.116 107.56C170.5 107.208 170.692 106.836 170.692 106.444C170.692 106.244 170.648 106.072 170.56 105.928C170.48 105.784 170.36 105.672 170.2 105.592C170.04 105.504 169.844 105.46 169.612 105.46C169.332 105.46 169.092 105.536 168.892 105.688C168.7 105.832 168.604 106.048 168.604 106.336C168.604 106.544 168.668 106.72 168.796 106.864C168.924 107.008 169.1 107.136 169.324 107.248C169.556 107.36 169.82 107.464 170.116 107.56ZM169.636 110.92C169.996 110.92 170.284 110.844 170.5 110.692C170.724 110.532 170.836 110.292 170.836 109.972C170.836 109.804 170.792 109.656 170.704 109.528C170.616 109.4 170.488 109.288 170.32 109.192C170.16 109.096 169.968 109.008 169.744 108.928C169.52 108.84 169.272 108.744 169 108.64C168.856 108.744 168.728 108.86 168.616 108.988C168.504 109.108 168.416 109.244 168.352 109.396C168.288 109.54 168.256 109.692 168.256 109.852C168.256 110.076 168.316 110.268 168.436 110.428C168.556 110.588 168.72 110.712 168.928 110.8C169.136 110.88 169.372 110.92 169.636 110.92ZM176.795 112.144C176.211 112.144 175.699 111.992 175.259 111.688C174.819 111.376 174.475 110.924 174.227 110.332C173.987 109.74 173.867 109.016 173.867 108.16C173.867 106.856 174.135 105.876 174.671 105.22C175.207 104.564 175.915 104.236 176.795 104.236C177.683 104.236 178.391 104.564 178.919 105.22C179.455 105.876 179.723 106.856 179.723 108.16C179.723 109.016 179.599 109.74 179.351 110.332C179.111 110.924 178.771 111.376 178.331 111.688C177.899 111.992 177.387 112.144 176.795 112.144ZM176.795 110.776C177.051 110.776 177.279 110.696 177.479 110.536C177.687 110.376 177.851 110.104 177.971 109.72C178.091 109.336 178.151 108.816 178.151 108.16C178.151 107.496 178.091 106.98 177.971 106.612C177.851 106.236 177.687 105.976 177.479 105.832C177.279 105.68 177.051 105.604 176.795 105.604C176.547 105.604 176.319 105.68 176.111 105.832C175.903 105.976 175.739 106.236 175.619 106.612C175.499 106.98 175.439 107.496 175.439 108.16C175.439 108.816 175.499 109.336 175.619 109.72C175.739 110.104 175.903 110.376 176.111 110.536C176.319 110.696 176.547 110.776 176.795 110.776ZM176.795 109.048C176.547 109.048 176.335 108.964 176.159 108.796C175.983 108.628 175.895 108.408 175.895 108.136C175.895 107.856 175.983 107.636 176.159 107.476C176.335 107.308 176.547 107.224 176.795 107.224C177.051 107.224 177.263 107.308 177.431 107.476C177.607 107.636 177.695 107.856 177.695 108.136C177.695 108.408 177.607 108.628 177.431 108.796C177.263 108.964 177.051 109.048 176.795 109.048ZM183.991 112.144C183.583 112.144 183.247 112.008 182.983 111.736C182.727 111.464 182.599 111.132 182.599 110.74C182.599 110.348 182.727 110.016 182.983 109.744C183.247 109.464 183.583 109.324 183.991 109.324C184.407 109.324 184.743 109.464 184.999 109.744C185.255 110.016 185.383 110.348 185.383 110.74C185.383 111.132 185.255 111.464 184.999 111.736C184.743 112.008 184.407 112.144 183.991 112.144ZM191.186 112.144C190.602 112.144 190.09 111.992 189.65 111.688C189.21 111.376 188.866 110.924 188.618 110.332C188.378 109.74 188.258 109.016 188.258 108.16C188.258 106.856 188.526 105.876 189.062 105.22C189.598 104.564 190.306 104.236 191.186 104.236C192.074 104.236 192.782 104.564 193.31 105.22C193.846 105.876 194.114 106.856 194.114 108.16C194.114 109.016 193.99 109.74 193.742 110.332C193.502 110.924 193.162 111.376 192.722 111.688C192.29 111.992 191.778 112.144 191.186 112.144ZM191.186 110.776C191.442 110.776 191.67 110.696 191.87 110.536C192.078 110.376 192.242 110.104 192.362 109.72C192.482 109.336 192.542 108.816 192.542 108.16C192.542 107.496 192.482 106.98 192.362 106.612C192.242 106.236 192.078 105.976 191.87 105.832C191.67 105.68 191.442 105.604 191.186 105.604C190.938 105.604 190.71 105.68 190.502 105.832C190.294 105.976 190.13 106.236 190.01 106.612C189.89 106.98 189.83 107.496 189.83 108.16C189.83 108.816 189.89 109.336 190.01 109.72C190.13 110.104 190.294 110.376 190.502 110.536C190.71 110.696 190.938 110.776 191.186 110.776ZM191.186 109.048C190.938 109.048 190.726 108.964 190.55 108.796C190.374 108.628 190.286 108.408 190.286 108.136C190.286 107.856 190.374 107.636 190.55 107.476C190.726 107.308 190.938 107.224 191.186 107.224C191.442 107.224 191.654 107.308 191.822 107.476C191.998 107.636 192.086 107.856 192.086 108.136C192.086 108.408 191.998 108.628 191.822 108.796C191.654 108.964 191.442 109.048 191.186 109.048ZM198.381 112.144C197.797 112.144 197.285 111.992 196.845 111.688C196.405 111.376 196.061 110.924 195.813 110.332C195.573 109.74 195.453 109.016 195.453 108.16C195.453 106.856 195.721 105.876 196.257 105.22C196.793 104.564 197.501 104.236 198.381 104.236C199.269 104.236 199.977 104.564 200.505 105.22C201.041 105.876 201.309 106.856 201.309 108.16C201.309 109.016 201.185 109.74 200.937 110.332C200.697 110.924 200.357 111.376 199.917 111.688C199.485 111.992 198.973 112.144 198.381 112.144ZM198.381 110.776C198.637 110.776 198.865 110.696 199.065 110.536C199.273 110.376 199.437 110.104 199.557 109.72C199.677 109.336 199.737 108.816 199.737 108.16C199.737 107.496 199.677 106.98 199.557 106.612C199.437 106.236 199.273 105.976 199.065 105.832C198.865 105.68 198.637 105.604 198.381 105.604C198.133 105.604 197.905 105.68 197.697 105.832C197.489 105.976 197.325 106.236 197.205 106.612C197.085 106.98 197.025 107.496 197.025 108.16C197.025 108.816 197.085 109.336 197.205 109.72C197.325 110.104 197.489 110.376 197.697 110.536C197.905 110.696 198.133 110.776 198.381 110.776ZM198.381 109.048C198.133 109.048 197.921 108.964 197.745 108.796C197.569 108.628 197.481 108.408 197.481 108.136C197.481 107.856 197.569 107.636 197.745 107.476C197.921 107.308 198.133 107.224 198.381 107.224C198.637 107.224 198.849 107.308 199.017 107.476C199.193 107.636 199.281 107.856 199.281 108.136C199.281 108.408 199.193 108.628 199.017 108.796C198.849 108.964 198.637 109.048 198.381 109.048Z" fill="#AC90FF"/>
<path opacity="0.8" d="M230.588 112.144C230.004 112.144 229.496 112.056 229.064 111.88C228.632 111.704 228.3 111.46 228.068 111.148C227.844 110.828 227.732 110.464 227.732 110.056C227.732 109.744 227.796 109.472 227.924 109.24C228.06 109.008 228.236 108.808 228.452 108.64C228.668 108.464 228.908 108.312 229.172 108.184V108.136C228.852 107.912 228.584 107.656 228.368 107.368C228.16 107.08 228.056 106.736 228.056 106.336C228.056 105.904 228.164 105.532 228.38 105.22C228.604 104.9 228.912 104.656 229.304 104.488C229.696 104.32 230.144 104.236 230.648 104.236C231.408 104.236 232.012 104.428 232.46 104.812C232.916 105.188 233.144 105.692 233.144 106.324C233.144 106.676 233.036 106.996 232.82 107.284C232.604 107.564 232.348 107.8 232.052 107.992V108.04C232.324 108.168 232.568 108.324 232.784 108.508C233 108.684 233.168 108.896 233.288 109.144C233.416 109.392 233.48 109.688 233.48 110.032C233.48 110.432 233.368 110.792 233.144 111.112C232.92 111.424 232.592 111.676 232.16 111.868C231.736 112.052 231.212 112.144 230.588 112.144ZM231.116 107.56C231.5 107.208 231.692 106.836 231.692 106.444C231.692 106.244 231.648 106.072 231.56 105.928C231.48 105.784 231.36 105.672 231.2 105.592C231.04 105.504 230.844 105.46 230.612 105.46C230.332 105.46 230.092 105.536 229.892 105.688C229.7 105.832 229.604 106.048 229.604 106.336C229.604 106.544 229.668 106.72 229.796 106.864C229.924 107.008 230.1 107.136 230.324 107.248C230.556 107.36 230.82 107.464 231.116 107.56ZM230.636 110.92C230.996 110.92 231.284 110.844 231.5 110.692C231.724 110.532 231.836 110.292 231.836 109.972C231.836 109.804 231.792 109.656 231.704 109.528C231.616 109.4 231.488 109.288 231.32 109.192C231.16 109.096 230.968 109.008 230.744 108.928C230.52 108.84 230.272 108.744 230 108.64C229.856 108.744 229.728 108.86 229.616 108.988C229.504 109.108 229.416 109.244 229.352 109.396C229.288 109.54 229.256 109.692 229.256 109.852C229.256 110.076 229.316 110.268 229.436 110.428C229.556 110.588 229.72 110.712 229.928 110.8C230.136 110.88 230.372 110.92 230.636 110.92ZM237.783 112.144C237.199 112.144 236.691 112.056 236.259 111.88C235.827 111.704 235.495 111.46 235.263 111.148C235.039 110.828 234.927 110.464 234.927 110.056C234.927 109.744 234.991 109.472 235.119 109.24C235.255 109.008 235.431 108.808 235.647 108.64C235.863 108.464 236.103 108.312 236.367 108.184V108.136C236.047 107.912 235.779 107.656 235.563 107.368C235.355 107.08 235.251 106.736 235.251 106.336C235.251 105.904 235.359 105.532 235.575 105.22C235.799 104.9 236.107 104.656 236.499 104.488C236.891 104.32 237.339 104.236 237.843 104.236C238.603 104.236 239.207 104.428 239.655 104.812C240.111 105.188 240.339 105.692 240.339 106.324C240.339 106.676 240.231 106.996 240.015 107.284C239.799 107.564 239.543 107.8 239.247 107.992V108.04C239.519 108.168 239.763 108.324 239.979 108.508C240.195 108.684 240.363 108.896 240.483 109.144C240.611 109.392 240.675 109.688 240.675 110.032C240.675 110.432 240.563 110.792 240.339 111.112C240.115 111.424 239.787 111.676 239.355 111.868C238.931 112.052 238.407 112.144 237.783 112.144ZM238.311 107.56C238.695 107.208 238.887 106.836 238.887 106.444C238.887 106.244 238.843 106.072 238.755 105.928C238.675 105.784 238.555 105.672 238.395 105.592C238.235 105.504 238.039 105.46 237.807 105.46C237.527 105.46 237.287 105.536 237.087 105.688C236.895 105.832 236.799 106.048 236.799 106.336C236.799 106.544 236.863 106.72 236.991 106.864C237.119 107.008 237.295 107.136 237.519 107.248C237.751 107.36 238.015 107.464 238.311 107.56ZM237.831 110.92C238.191 110.92 238.479 110.844 238.695 110.692C238.919 110.532 239.031 110.292 239.031 109.972C239.031 109.804 238.987 109.656 238.899 109.528C238.811 109.4 238.683 109.288 238.515 109.192C238.355 109.096 238.163 109.008 237.939 108.928C237.715 108.84 237.467 108.744 237.195 108.64C237.051 108.744 236.923 108.86 236.811 108.988C236.699 109.108 236.611 109.244 236.547 109.396C236.483 109.54 236.451 109.692 236.451 109.852C236.451 110.076 236.511 110.268 236.631 110.428C236.751 110.588 236.915 110.712 237.123 110.8C237.331 110.88 237.567 110.92 237.831 110.92ZM244.991 112.144C244.583 112.144 244.247 112.008 243.983 111.736C243.727 111.464 243.599 111.132 243.599 110.74C243.599 110.348 243.727 110.016 243.983 109.744C244.247 109.464 244.583 109.324 244.991 109.324C245.407 109.324 245.743 109.464 245.999 109.744C246.255 110.016 246.383 110.348 246.383 110.74C246.383 111.132 246.255 111.464 245.999 111.736C245.743 112.008 245.407 112.144 244.991 112.144ZM252.186 112.144C251.602 112.144 251.09 111.992 250.65 111.688C250.21 111.376 249.866 110.924 249.618 110.332C249.378 109.74 249.258 109.016 249.258 108.16C249.258 106.856 249.526 105.876 250.062 105.22C250.598 104.564 251.306 104.236 252.186 104.236C253.074 104.236 253.782 104.564 254.31 105.22C254.846 105.876 255.114 106.856 255.114 108.16C255.114 109.016 254.99 109.74 254.742 110.332C254.502 110.924 254.162 111.376 253.722 111.688C253.29 111.992 252.778 112.144 252.186 112.144ZM252.186 110.776C252.442 110.776 252.67 110.696 252.87 110.536C253.078 110.376 253.242 110.104 253.362 109.72C253.482 109.336 253.542 108.816 253.542 108.16C253.542 107.496 253.482 106.98 253.362 106.612C253.242 106.236 253.078 105.976 252.87 105.832C252.67 105.68 252.442 105.604 252.186 105.604C251.938 105.604 251.71 105.68 251.502 105.832C251.294 105.976 251.13 106.236 251.01 106.612C250.89 106.98 250.83 107.496 250.83 108.16C250.83 108.816 250.89 109.336 251.01 109.72C251.13 110.104 251.294 110.376 251.502 110.536C251.71 110.696 251.938 110.776 252.186 110.776ZM252.186 109.048C251.938 109.048 251.726 108.964 251.55 108.796C251.374 108.628 251.286 108.408 251.286 108.136C251.286 107.856 251.374 107.636 251.55 107.476C251.726 107.308 251.938 107.224 252.186 107.224C252.442 107.224 252.654 107.308 252.822 107.476C252.998 107.636 253.086 107.856 253.086 108.136C253.086 108.408 252.998 108.628 252.822 108.796C252.654 108.964 252.442 109.048 252.186 109.048ZM259.381 112.144C258.797 112.144 258.285 111.992 257.845 111.688C257.405 111.376 257.061 110.924 256.813 110.332C256.573 109.74 256.453 109.016 256.453 108.16C256.453 106.856 256.721 105.876 257.257 105.22C257.793 104.564 258.501 104.236 259.381 104.236C260.269 104.236 260.977 104.564 261.505 105.22C262.041 105.876 262.309 106.856 262.309 108.16C262.309 109.016 262.185 109.74 261.937 110.332C261.697 110.924 261.357 111.376 260.917 111.688C260.485 111.992 259.973 112.144 259.381 112.144ZM259.381 110.776C259.637 110.776 259.865 110.696 260.065 110.536C260.273 110.376 260.437 110.104 260.557 109.72C260.677 109.336 260.737 108.816 260.737 108.16C260.737 107.496 260.677 106.98 260.557 106.612C260.437 106.236 260.273 105.976 260.065 105.832C259.865 105.68 259.637 105.604 259.381 105.604C259.133 105.604 258.905 105.68 258.697 105.832C258.489 105.976 258.325 106.236 258.205 106.612C258.085 106.98 258.025 107.496 258.025 108.16C258.025 108.816 258.085 109.336 258.205 109.72C258.325 110.104 258.489 110.376 258.697 110.536C258.905 110.696 259.133 110.776 259.381 110.776ZM259.381 109.048C259.133 109.048 258.921 108.964 258.745 108.796C258.569 108.628 258.481 108.408 258.481 108.136C258.481 107.856 258.569 107.636 258.745 107.476C258.921 107.308 259.133 107.224 259.381 107.224C259.637 107.224 259.849 107.308 260.017 107.476C260.193 107.636 260.281 107.856 260.281 108.136C260.281 108.408 260.193 108.628 260.017 108.796C259.849 108.964 259.637 109.048 259.381 109.048Z" fill="#6FCF97"/>
<path opacity="0.8" d="M227.095 25V17.176H229.867C230.435 17.176 230.947 17.256 231.403 17.416C231.867 17.568 232.235 17.828 232.507 18.196C232.787 18.564 232.927 19.064 232.927 19.696C232.927 20.304 232.787 20.804 232.507 21.196C232.227 21.588 231.855 21.88 231.391 22.072C230.927 22.256 230.419 22.348 229.867 22.348H228.859V25H227.095ZM228.859 20.944H229.759C230.247 20.944 230.607 20.836 230.839 20.62C231.079 20.404 231.199 20.096 231.199 19.696C231.199 19.28 231.075 18.992 230.827 18.832C230.587 18.664 230.231 18.58 229.759 18.58H228.859V20.944ZM234.783 25V19.048H236.223L236.367 20.344H236.403C236.699 19.856 237.055 19.496 237.471 19.264C237.895 19.024 238.343 18.904 238.815 18.904C239.079 18.904 239.291 18.924 239.451 18.964C239.619 19.004 239.791 19.064 239.967 19.144L239.607 20.62C239.423 20.564 239.255 20.524 239.103 20.5C238.959 20.468 238.775 20.452 238.551 20.452C238.183 20.452 237.819 20.56 237.459 20.776C237.107 20.992 236.803 21.368 236.547 21.904V25H234.783ZM244.186 25.144C243.666 25.144 243.174 25.024 242.71 24.784C242.246 24.536 241.87 24.18 241.582 23.716C241.294 23.244 241.15 22.68 241.15 22.024C241.15 21.368 241.294 20.808 241.582 20.344C241.87 19.872 242.246 19.516 242.71 19.276C243.174 19.028 243.666 18.904 244.186 18.904C244.706 18.904 245.198 19.028 245.662 19.276C246.126 19.516 246.502 19.872 246.79 20.344C247.078 20.808 247.222 21.368 247.222 22.024C247.222 22.68 247.078 23.244 246.79 23.716C246.502 24.18 246.126 24.536 245.662 24.784C245.198 25.024 244.706 25.144 244.186 25.144ZM244.186 23.716C244.458 23.716 244.682 23.648 244.858 23.512C245.042 23.376 245.178 23.18 245.266 22.924C245.362 22.668 245.41 22.368 245.41 22.024C245.41 21.68 245.362 21.38 245.266 21.124C245.178 20.868 245.042 20.672 244.858 20.536C244.682 20.4 244.458 20.332 244.186 20.332C243.914 20.332 243.686 20.4 243.502 20.536C243.326 20.672 243.19 20.868 243.094 21.124C243.006 21.38 242.962 21.68 242.962 22.024C242.962 22.368 243.006 22.668 243.094 22.924C243.19 23.18 243.326 23.376 243.502 23.512C243.686 23.648 243.914 23.716 244.186 23.716ZM250.337 25V18.892C250.337 18.436 250.429 18.024 250.613 17.656C250.805 17.28 251.093 16.984 251.477 16.768C251.869 16.552 252.377 16.444 253.001 16.444C253.345 16.444 253.669 16.48 253.973 16.552C254.277 16.616 254.553 16.688 254.801 16.768L254.465 18.064C254.273 17.992 254.073 17.936 253.865 17.896C253.665 17.856 253.449 17.836 253.217 17.836C252.841 17.836 252.561 17.92 252.377 18.088C252.193 18.256 252.101 18.52 252.101 18.88V25H250.337ZM248.765 20.428V19.12L250.397 19.048H254.153V20.428H248.765ZM258.313 25V20.428H255.913V19.048H260.077V25H258.313ZM259.117 18.112C258.781 18.112 258.501 18.016 258.277 17.824C258.053 17.624 257.941 17.364 257.941 17.044C257.941 16.716 258.053 16.452 258.277 16.252C258.501 16.044 258.781 15.94 259.117 15.94C259.461 15.94 259.741 16.044 259.957 16.252C260.181 16.452 260.293 16.716 260.293 17.044C260.293 17.364 260.181 17.624 259.957 17.824C259.741 18.016 259.461 18.112 259.117 18.112ZM266.828 25.144C266.196 25.144 265.692 25.036 265.316 24.82C264.948 24.596 264.68 24.288 264.512 23.896C264.344 23.504 264.26 23.048 264.26 22.528V20.428H262.772V19.12L264.344 19.048L264.572 17.224H266.024V19.048H268.544V20.428H266.024V22.516C266.024 22.812 266.068 23.052 266.156 23.236C266.244 23.42 266.38 23.556 266.564 23.644C266.748 23.724 266.984 23.764 267.272 23.764C267.504 23.764 267.716 23.744 267.908 23.704C268.1 23.664 268.284 23.612 268.46 23.548L268.772 24.82C268.508 24.9 268.216 24.972 267.896 25.036C267.584 25.108 267.228 25.144 266.828 25.144ZM279.515 23.872V21.664H277.403V20.416H279.515V18.208H280.811V20.416H282.923V21.664H280.811V23.872H279.515ZM287.346 25.144C286.762 25.144 286.254 25.056 285.822 24.88C285.39 24.704 285.058 24.46 284.826 24.148C284.602 23.828 284.49 23.464 284.49 23.056C284.49 22.744 284.554 22.472 284.682 22.24C284.818 22.008 284.994 21.808 285.21 21.64C285.426 21.464 285.666 21.312 285.93 21.184V21.136C285.61 20.912 285.342 20.656 285.126 20.368C284.918 20.08 284.814 19.736 284.814 19.336C284.814 18.904 284.922 18.532 285.138 18.22C285.362 17.9 285.67 17.656 286.062 17.488C286.454 17.32 286.902 17.236 287.406 17.236C288.166 17.236 288.77 17.428 289.218 17.812C289.674 18.188 289.902 18.692 289.902 19.324C289.902 19.676 289.794 19.996 289.578 20.284C289.362 20.564 289.106 20.8 288.81 20.992V21.04C289.082 21.168 289.326 21.324 289.542 21.508C289.758 21.684 289.926 21.896 290.046 22.144C290.174 22.392 290.238 22.688 290.238 23.032C290.238 23.432 290.126 23.792 289.902 24.112C289.678 24.424 289.35 24.676 288.918 24.868C288.494 25.052 287.97 25.144 287.346 25.144ZM287.874 20.56C288.258 20.208 288.45 19.836 288.45 19.444C288.45 19.244 288.406 19.072 288.318 18.928C288.238 18.784 288.118 18.672 287.958 18.592C287.798 18.504 287.602 18.46 287.37 18.46C287.09 18.46 286.85 18.536 286.65 18.688C286.458 18.832 286.362 19.048 286.362 19.336C286.362 19.544 286.426 19.72 286.554 19.864C286.682 20.008 286.858 20.136 287.082 20.248C287.314 20.36 287.578 20.464 287.874 20.56ZM287.394 23.92C287.754 23.92 288.042 23.844 288.258 23.692C288.482 23.532 288.594 23.292 288.594 22.972C288.594 22.804 288.55 22.656 288.462 22.528C288.374 22.4 288.246 22.288 288.078 22.192C287.918 22.096 287.726 22.008 287.502 21.928C287.278 21.84 287.03 21.744 286.758 21.64C286.614 21.744 286.486 21.86 286.374 21.988C286.262 22.108 286.174 22.244 286.11 22.396C286.046 22.54 286.014 22.692 286.014 22.852C286.014 23.076 286.074 23.268 286.194 23.428C286.314 23.588 286.478 23.712 286.686 23.8C286.894 23.88 287.13 23.92 287.394 23.92ZM294.553 25.144C293.969 25.144 293.457 24.992 293.017 24.688C292.577 24.376 292.233 23.924 291.985 23.332C291.745 22.74 291.625 22.016 291.625 21.16C291.625 19.856 291.893 18.876 292.429 18.22C292.965 17.564 293.673 17.236 294.553 17.236C295.441 17.236 296.149 17.564 296.677 18.22C297.213 18.876 297.481 19.856 297.481 21.16C297.481 22.016 297.357 22.74 297.109 23.332C296.869 23.924 296.529 24.376 296.089 24.688C295.657 24.992 295.145 25.144 294.553 25.144ZM294.553 23.776C294.809 23.776 295.037 23.696 295.237 23.536C295.445 23.376 295.609 23.104 295.729 22.72C295.849 22.336 295.909 21.816 295.909 21.16C295.909 20.496 295.849 19.98 295.729 19.612C295.609 19.236 295.445 18.976 295.237 18.832C295.037 18.68 294.809 18.604 294.553 18.604C294.305 18.604 294.077 18.68 293.869 18.832C293.661 18.976 293.497 19.236 293.377 19.612C293.257 19.98 293.197 20.496 293.197 21.16C293.197 21.816 293.257 22.336 293.377 22.72C293.497 23.104 293.661 23.376 293.869 23.536C294.077 23.696 294.305 23.776 294.553 23.776ZM294.553 22.048C294.305 22.048 294.093 21.964 293.917 21.796C293.741 21.628 293.653 21.408 293.653 21.136C293.653 20.856 293.741 20.636 293.917 20.476C294.093 20.308 294.305 20.224 294.553 20.224C294.809 20.224 295.021 20.308 295.189 20.476C295.365 20.636 295.453 20.856 295.453 21.136C295.453 21.408 295.365 21.628 295.189 21.796C295.021 21.964 294.809 22.048 294.553 22.048ZM301.748 25.144C301.164 25.144 300.652 24.992 300.212 24.688C299.772 24.376 299.428 23.924 299.18 23.332C298.94 22.74 298.82 22.016 298.82 21.16C298.82 19.856 299.088 18.876 299.624 18.22C300.16 17.564 300.868 17.236 301.748 17.236C302.636 17.236 303.344 17.564 303.872 18.22C304.408 18.876 304.676 19.856 304.676 21.16C304.676 22.016 304.552 22.74 304.304 23.332C304.064 23.924 303.724 24.376 303.284 24.688C302.852 24.992 302.34 25.144 301.748 25.144ZM301.748 23.776C302.004 23.776 302.232 23.696 302.432 23.536C302.64 23.376 302.804 23.104 302.924 22.72C303.044 22.336 303.104 21.816 303.104 21.16C303.104 20.496 303.044 19.98 302.924 19.612C302.804 19.236 302.64 18.976 302.432 18.832C302.232 18.68 302.004 18.604 301.748 18.604C301.5 18.604 301.272 18.68 301.064 18.832C300.856 18.976 300.692 19.236 300.572 19.612C300.452 19.98 300.392 20.496 300.392 21.16C300.392 21.816 300.452 22.336 300.572 22.72C300.692 23.104 300.856 23.376 301.064 23.536C301.272 23.696 301.5 23.776 301.748 23.776ZM301.748 22.048C301.5 22.048 301.288 21.964 301.112 21.796C300.936 21.628 300.848 21.408 300.848 21.136C300.848 20.856 300.936 20.636 301.112 20.476C301.288 20.308 301.5 20.224 301.748 20.224C302.004 20.224 302.216 20.308 302.384 20.476C302.56 20.636 302.648 20.856 302.648 21.136C302.648 21.408 302.56 21.628 302.384 21.796C302.216 21.964 302.004 22.048 301.748 22.048ZM308.944 25.144C308.536 25.144 308.2 25.008 307.936 24.736C307.68 24.464 307.552 24.132 307.552 23.74C307.552 23.348 307.68 23.016 307.936 22.744C308.2 22.464 308.536 22.324 308.944 22.324C309.36 22.324 309.696 22.464 309.952 22.744C310.208 23.016 310.336 23.348 310.336 23.74C310.336 24.132 310.208 24.464 309.952 24.736C309.696 25.008 309.36 25.144 308.944 25.144ZM316.139 25.144C315.555 25.144 315.043 24.992 314.603 24.688C314.163 24.376 313.819 23.924 313.571 23.332C313.331 22.74 313.211 22.016 313.211 21.16C313.211 19.856 313.479 18.876 314.015 18.22C314.551 17.564 315.259 17.236 316.139 17.236C317.027 17.236 317.735 17.564 318.263 18.22C318.799 18.876 319.067 19.856 319.067 21.16C319.067 22.016 318.943 22.74 318.695 23.332C318.455 23.924 318.115 24.376 317.675 24.688C317.243 24.992 316.731 25.144 316.139 25.144ZM316.139 23.776C316.395 23.776 316.623 23.696 316.823 23.536C317.031 23.376 317.195 23.104 317.315 22.72C317.435 22.336 317.495 21.816 317.495 21.16C317.495 20.496 317.435 19.98 317.315 19.612C317.195 19.236 317.031 18.976 316.823 18.832C316.623 18.68 316.395 18.604 316.139 18.604C315.891 18.604 315.663 18.68 315.455 18.832C315.247 18.976 315.083 19.236 314.963 19.612C314.843 19.98 314.783 20.496 314.783 21.16C314.783 21.816 314.843 22.336 314.963 22.72C315.083 23.104 315.247 23.376 315.455 23.536C315.663 23.696 315.891 23.776 316.139 23.776ZM316.139 22.048C315.891 22.048 315.679 21.964 315.503 21.796C315.327 21.628 315.239 21.408 315.239 21.136C315.239 20.856 315.327 20.636 315.503 20.476C315.679 20.308 315.891 20.224 316.139 20.224C316.395 20.224 316.607 20.308 316.775 20.476C316.951 20.636 317.039 20.856 317.039 21.136C317.039 21.408 316.951 21.628 316.775 21.796C316.607 21.964 316.395 22.048 316.139 22.048ZM323.334 25.144C322.75 25.144 322.238 24.992 321.798 24.688C321.358 24.376 321.014 23.924 320.766 23.332C320.526 22.74 320.406 22.016 320.406 21.16C320.406 19.856 320.674 18.876 321.21 18.22C321.746 17.564 322.454 17.236 323.334 17.236C324.222 17.236 324.93 17.564 325.458 18.22C325.994 18.876 326.262 19.856 326.262 21.16C326.262 22.016 326.138 22.74 325.89 23.332C325.65 23.924 325.31 24.376 324.87 24.688C324.438 24.992 323.926 25.144 323.334 25.144ZM323.334 23.776C323.59 23.776 323.818 23.696 324.018 23.536C324.226 23.376 324.39 23.104 324.51 22.72C324.63 22.336 324.69 21.816 324.69 21.16C324.69 20.496 324.63 19.98 324.51 19.612C324.39 19.236 324.226 18.976 324.018 18.832C323.818 18.68 323.59 18.604 323.334 18.604C323.086 18.604 322.858 18.68 322.65 18.832C322.442 18.976 322.278 19.236 322.158 19.612C322.038 19.98 321.978 20.496 321.978 21.16C321.978 21.816 322.038 22.336 322.158 22.72C322.278 23.104 322.442 23.376 322.65 23.536C322.858 23.696 323.086 23.776 323.334 23.776ZM323.334 22.048C323.086 22.048 322.874 21.964 322.698 21.796C322.522 21.628 322.434 21.408 322.434 21.136C322.434 20.856 322.522 20.636 322.698 20.476C322.874 20.308 323.086 20.224 323.334 20.224C323.59 20.224 323.802 20.308 323.97 20.476C324.146 20.636 324.234 20.856 324.234 21.136C324.234 21.408 324.146 21.628 323.97 21.796C323.802 21.964 323.59 22.048 323.334 22.048Z" fill="#6FCF97"/>
<path d="M106.316 112C106.348 111.368 106.408 110.784 106.496 110.248C106.592 109.712 106.724 109.208 106.892 108.736C107.068 108.256 107.292 107.784 107.564 107.32C107.836 106.848 108.172 106.364 108.572 105.868H104.744V104.38H110.468V105.46C109.988 105.996 109.6 106.5 109.304 106.972C109.008 107.444 108.776 107.924 108.608 108.412C108.448 108.9 108.328 109.436 108.248 110.02C108.176 110.596 108.124 111.256 108.092 112H106.316ZM111.891 112V110.992C112.619 110.376 113.255 109.82 113.799 109.324C114.351 108.82 114.779 108.36 115.083 107.944C115.387 107.52 115.539 107.128 115.539 106.768C115.539 106.392 115.427 106.108 115.203 105.916C114.987 105.716 114.683 105.616 114.291 105.616C113.987 105.616 113.707 105.696 113.451 105.856C113.203 106.008 112.971 106.188 112.755 106.396L111.807 105.448C112.199 105.04 112.603 104.736 113.019 104.536C113.443 104.336 113.947 104.236 114.531 104.236C115.059 104.236 115.523 104.336 115.923 104.536C116.331 104.736 116.647 105.02 116.871 105.388C117.103 105.748 117.219 106.172 117.219 106.66C117.219 107.092 117.087 107.528 116.823 107.968C116.567 108.408 116.223 108.852 115.791 109.3C115.367 109.74 114.911 110.176 114.423 110.608C114.639 110.584 114.875 110.564 115.131 110.548C115.387 110.524 115.611 110.512 115.803 110.512H117.615V112H111.891ZM121.991 112.144C121.583 112.144 121.247 112.008 120.983 111.736C120.727 111.464 120.599 111.132 120.599 110.74C120.599 110.348 120.727 110.016 120.983 109.744C121.247 109.464 121.583 109.324 121.991 109.324C122.407 109.324 122.743 109.464 122.999 109.744C123.255 110.016 123.383 110.348 123.383 110.74C123.383 111.132 123.255 111.464 122.999 111.736C122.743 112.008 122.407 112.144 121.991 112.144ZM129.186 112.144C128.602 112.144 128.09 111.992 127.65 111.688C127.21 111.376 126.866 110.924 126.618 110.332C126.378 109.74 126.258 109.016 126.258 108.16C126.258 106.856 126.526 105.876 127.062 105.22C127.598 104.564 128.306 104.236 129.186 104.236C130.074 104.236 130.782 104.564 131.31 105.22C131.846 105.876 132.114 106.856 132.114 108.16C132.114 109.016 131.99 109.74 131.742 110.332C131.502 110.924 131.162 111.376 130.722 111.688C130.29 111.992 129.778 112.144 129.186 112.144ZM129.186 110.776C129.442 110.776 129.67 110.696 129.87 110.536C130.078 110.376 130.242 110.104 130.362 109.72C130.482 109.336 130.542 108.816 130.542 108.16C130.542 107.496 130.482 106.98 130.362 106.612C130.242 106.236 130.078 105.976 129.87 105.832C129.67 105.68 129.442 105.604 129.186 105.604C128.938 105.604 128.71 105.68 128.502 105.832C128.294 105.976 128.13 106.236 128.01 106.612C127.89 106.98 127.83 107.496 127.83 108.16C127.83 108.816 127.89 109.336 128.01 109.72C128.13 110.104 128.294 110.376 128.502 110.536C128.71 110.696 128.938 110.776 129.186 110.776ZM129.186 109.048C128.938 109.048 128.726 108.964 128.55 108.796C128.374 108.628 128.286 108.408 128.286 108.136C128.286 107.856 128.374 107.636 128.55 107.476C128.726 107.308 128.938 107.224 129.186 107.224C129.442 107.224 129.654 107.308 129.822 107.476C129.998 107.636 130.086 107.856 130.086 108.136C130.086 108.408 129.998 108.628 129.822 108.796C129.654 108.964 129.442 109.048 129.186 109.048ZM136.381 112.144C135.797 112.144 135.285 111.992 134.845 111.688C134.405 111.376 134.061 110.924 133.813 110.332C133.573 109.74 133.453 109.016 133.453 108.16C133.453 106.856 133.721 105.876 134.257 105.22C134.793 104.564 135.501 104.236 136.381 104.236C137.269 104.236 137.977 104.564 138.505 105.22C139.041 105.876 139.309 106.856 139.309 108.16C139.309 109.016 139.185 109.74 138.937 110.332C138.697 110.924 138.357 111.376 137.917 111.688C137.485 111.992 136.973 112.144 136.381 112.144ZM136.381 110.776C136.637 110.776 136.865 110.696 137.065 110.536C137.273 110.376 137.437 110.104 137.557 109.72C137.677 109.336 137.737 108.816 137.737 108.16C137.737 107.496 137.677 106.98 137.557 106.612C137.437 106.236 137.273 105.976 137.065 105.832C136.865 105.68 136.637 105.604 136.381 105.604C136.133 105.604 135.905 105.68 135.697 105.832C135.489 105.976 135.325 106.236 135.205 106.612C135.085 106.98 135.025 107.496 135.025 108.16C135.025 108.816 135.085 109.336 135.205 109.72C135.325 110.104 135.489 110.376 135.697 110.536C135.905 110.696 136.133 110.776 136.381 110.776ZM136.381 109.048C136.133 109.048 135.921 108.964 135.745 108.796C135.569 108.628 135.481 108.408 135.481 108.136C135.481 107.856 135.569 107.636 135.745 107.476C135.921 107.308 136.133 107.224 136.381 107.224C136.637 107.224 136.849 107.308 137.017 107.476C137.193 107.636 137.281 107.856 137.281 108.136C137.281 108.408 137.193 108.628 137.017 108.796C136.849 108.964 136.637 109.048 136.381 109.048Z" fill="#EB5757"/>
<path d="M2.284 172V164.176H4.048V170.512H7.528V172H2.284ZM11.7953 172.144C11.2753 172.144 10.7833 172.024 10.3193 171.784C9.85531 171.536 9.47931 171.18 9.19131 170.716C8.90331 170.244 8.75931 169.68 8.75931 169.024C8.75931 168.368 8.90331 167.808 9.19131 167.344C9.47931 166.872 9.85531 166.516 10.3193 166.276C10.7833 166.028 11.2753 165.904 11.7953 165.904C12.3153 165.904 12.8073 166.028 13.2713 166.276C13.7353 166.516 14.1113 166.872 14.3993 167.344C14.6873 167.808 14.8313 168.368 14.8313 169.024C14.8313 169.68 14.6873 170.244 14.3993 170.716C14.1113 171.18 13.7353 171.536 13.2713 171.784C12.8073 172.024 12.3153 172.144 11.7953 172.144ZM11.7953 170.716C12.0673 170.716 12.2913 170.648 12.4673 170.512C12.6513 170.376 12.7873 170.18 12.8753 169.924C12.9713 169.668 13.0193 169.368 13.0193 169.024C13.0193 168.68 12.9713 168.38 12.8753 168.124C12.7873 167.868 12.6513 167.672 12.4673 167.536C12.2913 167.4 12.0673 167.332 11.7953 167.332C11.5233 167.332 11.2953 167.4 11.1113 167.536C10.9353 167.672 10.7993 167.868 10.7033 168.124C10.6153 168.38 10.5713 168.68 10.5713 169.024C10.5713 169.368 10.6153 169.668 10.7033 169.924C10.7993 170.18 10.9353 170.376 11.1113 170.512C11.2953 170.648 11.5233 170.716 11.7953 170.716ZM18.9426 172.144C18.4146 172.144 17.8906 172.056 17.3706 171.88C16.8506 171.696 16.4026 171.48 16.0266 171.232L16.7826 170.128C17.1426 170.36 17.5226 170.536 17.9226 170.656C18.3306 170.776 18.7506 170.836 19.1826 170.836C19.5106 170.836 19.7506 170.788 19.9026 170.692C20.0546 170.588 20.1306 170.468 20.1306 170.332C20.1306 170.244 20.1066 170.172 20.0586 170.116C20.0186 170.052 19.9426 169.996 19.8306 169.948C19.7266 169.892 19.5786 169.84 19.3866 169.792C19.2026 169.744 18.9626 169.688 18.6666 169.624C17.8586 169.448 17.2786 169.208 16.9266 168.904C16.5746 168.6 16.3986 168.22 16.3986 167.764C16.3986 167.204 16.6426 166.756 17.1306 166.42C17.6186 166.076 18.2866 165.904 19.1346 165.904C19.6706 165.904 20.1546 165.992 20.5866 166.168C21.0266 166.336 21.4026 166.52 21.7146 166.72L20.9226 167.776C20.6266 167.592 20.3106 167.452 19.9746 167.356C19.6386 167.26 19.3066 167.212 18.9786 167.212C18.7946 167.212 18.6426 167.232 18.5226 167.272C18.4026 167.304 18.3106 167.36 18.2466 167.44C18.1826 167.512 18.1506 167.592 18.1506 167.68C18.1506 167.84 18.2546 167.96 18.4626 168.04C18.6706 168.112 19.0266 168.204 19.5306 168.316C20.1386 168.452 20.6146 168.608 20.9586 168.784C21.3026 168.96 21.5386 169.164 21.6666 169.396C21.8026 169.62 21.8706 169.896 21.8706 170.224C21.8706 170.584 21.7586 170.908 21.5346 171.196C21.3186 171.484 20.9906 171.716 20.5506 171.892C20.1186 172.06 19.5826 172.144 18.9426 172.144ZM26.1379 172.144C25.6099 172.144 25.0859 172.056 24.5659 171.88C24.0459 171.696 23.5979 171.48 23.2219 171.232L23.9779 170.128C24.3379 170.36 24.7179 170.536 25.1179 170.656C25.5259 170.776 25.9459 170.836 26.3779 170.836C26.7059 170.836 26.9459 170.788 27.0979 170.692C27.2499 170.588 27.3259 170.468 27.3259 170.332C27.3259 170.244 27.3019 170.172 27.2539 170.116C27.2139 170.052 27.1379 169.996 27.0259 169.948C26.9219 169.892 26.7739 169.84 26.5819 169.792C26.3979 169.744 26.1579 169.688 25.8619 169.624C25.0539 169.448 24.4739 169.208 24.1219 168.904C23.7699 168.6 23.5939 168.22 23.5939 167.764C23.5939 167.204 23.8379 166.756 24.3259 166.42C24.8139 166.076 25.4819 165.904 26.3299 165.904C26.8659 165.904 27.3499 165.992 27.7819 166.168C28.2219 166.336 28.5979 166.52 28.9099 166.72L28.1179 167.776C27.8219 167.592 27.5059 167.452 27.1699 167.356C26.8339 167.26 26.5019 167.212 26.1739 167.212C25.9899 167.212 25.8379 167.232 25.7179 167.272C25.5979 167.304 25.5059 167.36 25.4419 167.44C25.3779 167.512 25.3459 167.592 25.3459 167.68C25.3459 167.84 25.4499 167.96 25.6579 168.04C25.8659 168.112 26.2219 168.204 26.7259 168.316C27.3339 168.452 27.8099 168.608 28.1539 168.784C28.4979 168.96 28.7339 169.164 28.8619 169.396C28.9979 169.62 29.0659 169.896 29.0659 170.224C29.0659 170.584 28.9539 170.908 28.7299 171.196C28.5139 171.484 28.1859 171.716 27.7459 171.892C27.3139 172.06 26.7779 172.144 26.1379 172.144ZM37.8166 168.664V167.416H43.3366V168.664H37.8166ZM47.7599 172.144C47.1759 172.144 46.6679 172.056 46.2359 171.88C45.8039 171.704 45.4719 171.46 45.2399 171.148C45.0159 170.828 44.9039 170.464 44.9039 170.056C44.9039 169.744 44.9679 169.472 45.0959 169.24C45.2319 169.008 45.4079 168.808 45.6239 168.64C45.8399 168.464 46.0799 168.312 46.3439 168.184V168.136C46.0239 167.912 45.7559 167.656 45.5399 167.368C45.3319 167.08 45.2279 166.736 45.2279 166.336C45.2279 165.904 45.3359 165.532 45.5519 165.22C45.7759 164.9 46.0839 164.656 46.4759 164.488C46.8679 164.32 47.3159 164.236 47.8199 164.236C48.5799 164.236 49.1839 164.428 49.6319 164.812C50.0879 165.188 50.3159 165.692 50.3159 166.324C50.3159 166.676 50.2079 166.996 49.9919 167.284C49.7759 167.564 49.5199 167.8 49.2239 167.992V168.04C49.4959 168.168 49.7399 168.324 49.9559 168.508C50.1719 168.684 50.3399 168.896 50.4599 169.144C50.5879 169.392 50.6519 169.688 50.6519 170.032C50.6519 170.432 50.5399 170.792 50.3159 171.112C50.0919 171.424 49.7639 171.676 49.3319 171.868C48.9079 172.052 48.3839 172.144 47.7599 172.144ZM48.2879 167.56C48.6719 167.208 48.8639 166.836 48.8639 166.444C48.8639 166.244 48.8199 166.072 48.7319 165.928C48.6519 165.784 48.5319 165.672 48.3719 165.592C48.2119 165.504 48.0159 165.46 47.7839 165.46C47.5039 165.46 47.2639 165.536 47.0639 165.688C46.8719 165.832 46.7759 166.048 46.7759 166.336C46.7759 166.544 46.8399 166.72 46.9679 166.864C47.0959 167.008 47.2719 167.136 47.4959 167.248C47.7279 167.36 47.9919 167.464 48.2879 167.56ZM47.8079 170.92C48.1679 170.92 48.4559 170.844 48.6719 170.692C48.8959 170.532 49.0079 170.292 49.0079 169.972C49.0079 169.804 48.9639 169.656 48.8759 169.528C48.7879 169.4 48.6599 169.288 48.4919 169.192C48.3319 169.096 48.1399 169.008 47.9159 168.928C47.6919 168.84 47.4439 168.744 47.1719 168.64C47.0279 168.744 46.8999 168.86 46.7879 168.988C46.6759 169.108 46.5879 169.244 46.5239 169.396C46.4599 169.54 46.4279 169.692 46.4279 169.852C46.4279 170.076 46.4879 170.268 46.6079 170.428C46.7279 170.588 46.8919 170.712 47.0999 170.8C47.3079 170.88 47.5439 170.92 47.8079 170.92ZM54.9672 172.144C54.3832 172.144 53.8712 171.992 53.4312 171.688C52.9912 171.376 52.6472 170.924 52.3992 170.332C52.1592 169.74 52.0392 169.016 52.0392 168.16C52.0392 166.856 52.3072 165.876 52.8432 165.22C53.3792 164.564 54.0872 164.236 54.9672 164.236C55.8552 164.236 56.5632 164.564 57.0912 165.22C57.6272 165.876 57.8952 166.856 57.8952 168.16C57.8952 169.016 57.7712 169.74 57.5232 170.332C57.2832 170.924 56.9432 171.376 56.5032 171.688C56.0712 171.992 55.5592 172.144 54.9672 172.144ZM54.9672 170.776C55.2232 170.776 55.4512 170.696 55.6512 170.536C55.8592 170.376 56.0232 170.104 56.1432 169.72C56.2632 169.336 56.3232 168.816 56.3232 168.16C56.3232 167.496 56.2632 166.98 56.1432 166.612C56.0232 166.236 55.8592 165.976 55.6512 165.832C55.4512 165.68 55.2232 165.604 54.9672 165.604C54.7192 165.604 54.4912 165.68 54.2832 165.832C54.0752 165.976 53.9112 166.236 53.7912 166.612C53.6712 166.98 53.6112 167.496 53.6112 168.16C53.6112 168.816 53.6712 169.336 53.7912 169.72C53.9112 170.104 54.0752 170.376 54.2832 170.536C54.4912 170.696 54.7192 170.776 54.9672 170.776ZM54.9672 169.048C54.7192 169.048 54.5072 168.964 54.3312 168.796C54.1552 168.628 54.0672 168.408 54.0672 168.136C54.0672 167.856 54.1552 167.636 54.3312 167.476C54.5072 167.308 54.7192 167.224 54.9672 167.224C55.2232 167.224 55.4352 167.308 55.6032 167.476C55.7792 167.636 55.8672 167.856 55.8672 168.136C55.8672 168.408 55.7792 168.628 55.6032 168.796C55.4352 168.964 55.2232 169.048 54.9672 169.048ZM62.1625 172.144C61.5785 172.144 61.0665 171.992 60.6265 171.688C60.1865 171.376 59.8425 170.924 59.5945 170.332C59.3545 169.74 59.2345 169.016 59.2345 168.16C59.2345 166.856 59.5025 165.876 60.0385 165.22C60.5745 164.564 61.2825 164.236 62.1625 164.236C63.0505 164.236 63.7585 164.564 64.2865 165.22C64.8225 165.876 65.0905 166.856 65.0905 168.16C65.0905 169.016 64.9665 169.74 64.7185 170.332C64.4785 170.924 64.1385 171.376 63.6985 171.688C63.2665 171.992 62.7545 172.144 62.1625 172.144ZM62.1625 170.776C62.4185 170.776 62.6465 170.696 62.8465 170.536C63.0545 170.376 63.2185 170.104 63.3385 169.72C63.4585 169.336 63.5185 168.816 63.5185 168.16C63.5185 167.496 63.4585 166.98 63.3385 166.612C63.2185 166.236 63.0545 165.976 62.8465 165.832C62.6465 165.68 62.4185 165.604 62.1625 165.604C61.9145 165.604 61.6865 165.68 61.4785 165.832C61.2705 165.976 61.1065 166.236 60.9865 166.612C60.8665 166.98 60.8065 167.496 60.8065 168.16C60.8065 168.816 60.8665 169.336 60.9865 169.72C61.1065 170.104 61.2705 170.376 61.4785 170.536C61.6865 170.696 61.9145 170.776 62.1625 170.776ZM62.1625 169.048C61.9145 169.048 61.7025 168.964 61.5265 168.796C61.3505 168.628 61.2625 168.408 61.2625 168.136C61.2625 167.856 61.3505 167.636 61.5265 167.476C61.7025 167.308 61.9145 167.224 62.1625 167.224C62.4185 167.224 62.6305 167.308 62.7985 167.476C62.9745 167.636 63.0625 167.856 63.0625 168.136C63.0625 168.408 62.9745 168.628 62.7985 168.796C62.6305 168.964 62.4185 169.048 62.1625 169.048ZM69.3578 172.144C68.9498 172.144 68.6138 172.008 68.3498 171.736C68.0938 171.464 67.9658 171.132 67.9658 170.74C67.9658 170.348 68.0938 170.016 68.3498 169.744C68.6138 169.464 68.9498 169.324 69.3578 169.324C69.7738 169.324 70.1098 169.464 70.3658 169.744C70.6218 170.016 70.7498 170.348 70.7498 170.74C70.7498 171.132 70.6218 171.464 70.3658 171.736C70.1098 172.008 69.7738 172.144 69.3578 172.144ZM76.5531 172.144C75.9691 172.144 75.4571 171.992 75.0171 171.688C74.5771 171.376 74.2331 170.924 73.9851 170.332C73.7451 169.74 73.6251 169.016 73.6251 168.16C73.6251 166.856 73.8931 165.876 74.4291 165.22C74.9651 164.564 75.6731 164.236 76.5531 164.236C77.4411 164.236 78.1491 164.564 78.6771 165.22C79.2131 165.876 79.4811 166.856 79.4811 168.16C79.4811 169.016 79.3571 169.74 79.1091 170.332C78.8691 170.924 78.5291 171.376 78.0891 171.688C77.6571 171.992 77.1451 172.144 76.5531 172.144ZM76.5531 170.776C76.8091 170.776 77.0371 170.696 77.2371 170.536C77.4451 170.376 77.6091 170.104 77.7291 169.72C77.8491 169.336 77.9091 168.816 77.9091 168.16C77.9091 167.496 77.8491 166.98 77.7291 166.612C77.6091 166.236 77.4451 165.976 77.2371 165.832C77.0371 165.68 76.8091 165.604 76.5531 165.604C76.3051 165.604 76.0771 165.68 75.8691 165.832C75.6611 165.976 75.4971 166.236 75.3771 166.612C75.2571 166.98 75.1971 167.496 75.1971 168.16C75.1971 168.816 75.2571 169.336 75.3771 169.72C75.4971 170.104 75.6611 170.376 75.8691 170.536C76.0771 170.696 76.3051 170.776 76.5531 170.776ZM76.5531 169.048C76.3051 169.048 76.0931 168.964 75.9171 168.796C75.7411 168.628 75.6531 168.408 75.6531 168.136C75.6531 167.856 75.7411 167.636 75.9171 167.476C76.0931 167.308 76.3051 167.224 76.5531 167.224C76.8091 167.224 77.0211 167.308 77.1891 167.476C77.3651 167.636 77.4531 167.856 77.4531 168.136C77.4531 168.408 77.3651 168.628 77.1891 168.796C77.0211 168.964 76.8091 169.048 76.5531 169.048ZM83.7484 172.144C83.1644 172.144 82.6524 171.992 82.2124 171.688C81.7724 171.376 81.4284 170.924 81.1804 170.332C80.9404 169.74 80.8204 169.016 80.8204 168.16C80.8204 166.856 81.0884 165.876 81.6244 165.22C82.1604 164.564 82.8684 164.236 83.7484 164.236C84.6364 164.236 85.3444 164.564 85.8724 165.22C86.4084 165.876 86.6764 166.856 86.6764 168.16C86.6764 169.016 86.5524 169.74 86.3044 170.332C86.0644 170.924 85.7244 171.376 85.2844 171.688C84.8524 171.992 84.3404 172.144 83.7484 172.144ZM83.7484 170.776C84.0044 170.776 84.2324 170.696 84.4324 170.536C84.6404 170.376 84.8044 170.104 84.9244 169.72C85.0444 169.336 85.1044 168.816 85.1044 168.16C85.1044 167.496 85.0444 166.98 84.9244 166.612C84.8044 166.236 84.6404 165.976 84.4324 165.832C84.2324 165.68 84.0044 165.604 83.7484 165.604C83.5004 165.604 83.2724 165.68 83.0644 165.832C82.8564 165.976 82.6924 166.236 82.5724 166.612C82.4524 166.98 82.3924 167.496 82.3924 168.16C82.3924 168.816 82.4524 169.336 82.5724 169.72C82.6924 170.104 82.8564 170.376 83.0644 170.536C83.2724 170.696 83.5004 170.776 83.7484 170.776ZM83.7484 169.048C83.5004 169.048 83.2884 168.964 83.1124 168.796C82.9364 168.628 82.8484 168.408 82.8484 168.136C82.8484 167.856 82.9364 167.636 83.1124 167.476C83.2884 167.308 83.5004 167.224 83.7484 167.224C84.0044 167.224 84.2164 167.308 84.3844 167.476C84.5604 167.636 84.6484 167.856 84.6484 168.136C84.6484 168.408 84.5604 168.628 84.3844 168.796C84.2164 168.964 84.0044 169.048 83.7484 169.048Z" fill="#EB5757"/>
<path d="M226 33L226 93.5" stroke="#8873C6" stroke-width="2" stroke-dasharray="6 6"/>
<path d="M101 97L101 157.5" stroke="#8873C6" stroke-width="2" stroke-dasharray="6 6"/>
<path d="M1 95L328 94" stroke="#AC90FF" stroke-width="2"/>
<path d="M225 34L325 34" stroke="#5FAB7F" stroke-width="2"/>
<path d="M1 156L101 156" stroke="#5FAB7F" stroke-width="2"/>
<path d="M226 33L101 156" stroke="#5FAB7F" stroke-width="2"/>
<circle cx="163" cy="95" r="3" fill="#8146EB"/>
<circle cx="101" cy="95" r="3" fill="#EB5757"/>
<circle cx="226" cy="94" r="3" fill="#5FAB7F"/>
</svg>
