<svg width="330" height="225" viewBox="0 0 330 225" fill="none" xmlns="http://www.w3.org/2000/svg">
<path fill-rule="evenodd" clip-rule="evenodd" d="M0 163.079C0 162.231 0.53383 161.476 1.33248 161.193L30.832 150.749L65.272 143.769L118.02 131.088C118.276 131.027 118.542 131.016 118.802 131.058L140.668 134.542C140.914 134.581 141.165 134.574 141.408 134.521L162.478 129.936C162.618 129.906 162.76 129.891 162.903 129.891H171.872H188.589C188.814 129.891 189.036 129.853 189.248 129.779L243.342 110.926C244.642 110.473 246 111.438 246 112.815V177H0V163.079Z" fill="url(#paint0_linear_231_6153)"/>
<path d="M3.61172 14.144C3.04372 14.144 2.55572 13.988 2.14772 13.676C1.73972 13.356 1.42372 12.9 1.19972 12.308C0.975719 11.716 0.863719 10.996 0.863719 10.148C0.863719 8.86 1.10772 7.88 1.59572 7.208C2.09172 6.536 2.76372 6.2 3.61172 6.2C4.46772 6.2 5.13972 6.536 5.62772 7.208C6.11572 7.88 6.35972 8.86 6.35972 10.148C6.35972 10.996 6.24772 11.716 6.02372 12.308C5.80772 12.9 5.49172 13.356 5.07572 13.676C4.66772 13.988 4.17972 14.144 3.61172 14.144ZM3.61172 13.352C3.97172 13.352 4.28772 13.24 4.55972 13.016C4.83172 12.784 5.04372 12.432 5.19572 11.96C5.35572 11.48 5.43572 10.876 5.43572 10.148C5.43572 9.412 5.35572 8.812 5.19572 8.348C5.04372 7.884 4.83172 7.544 4.55972 7.328C4.28772 7.104 3.97172 6.992 3.61172 6.992C3.25972 6.992 2.94372 7.104 2.66372 7.328C2.39172 7.544 2.17572 7.884 2.01572 8.348C1.86372 8.812 1.78772 9.412 1.78772 10.148C1.78772 10.876 1.86372 11.48 2.01572 11.96C2.17572 12.432 2.39172 12.784 2.66372 13.016C2.94372 13.24 3.25972 13.352 3.61172 13.352ZM3.61172 10.868C3.41172 10.868 3.23572 10.796 3.08372 10.652C2.93972 10.508 2.86772 10.312 2.86772 10.064C2.86772 9.816 2.93972 9.624 3.08372 9.488C3.23572 9.344 3.41172 9.272 3.61172 9.272C3.81972 9.272 3.99572 9.344 4.13972 9.488C4.28372 9.624 4.35572 9.816 4.35572 10.064C4.35572 10.312 4.28372 10.508 4.13972 10.652C3.99572 10.796 3.81972 10.868 3.61172 10.868ZM8.37103 14V13.184H10.579V7.544H8.86303V6.908C9.16703 6.868 9.43503 6.82 9.66703 6.764C9.89903 6.708 10.111 6.648 10.303 6.584C10.495 6.512 10.671 6.432 10.831 6.344H11.563V13.184H13.567V14H8.37103ZM18.0023 14.144C17.7383 14.144 17.5103 14.052 17.3183 13.868C17.1263 13.676 17.0303 13.432 17.0303 13.136C17.0303 12.832 17.1263 12.588 17.3183 12.404C17.5103 12.212 17.7383 12.116 18.0023 12.116C18.2743 12.116 18.5023 12.212 18.6863 12.404C18.8783 12.588 18.9743 12.832 18.9743 13.136C18.9743 13.432 18.8783 13.676 18.6863 13.868C18.5023 14.052 18.2743 14.144 18.0023 14.144ZM22.7617 14V13.184H24.9697V7.544H23.2537V6.908C23.5577 6.868 23.8257 6.82 24.0577 6.764C24.2897 6.708 24.5017 6.648 24.6937 6.584C24.8857 6.512 25.0617 6.432 25.2217 6.344H25.9537V13.184H27.9577V14H22.7617ZM32.393 14.144C31.825 14.144 31.337 13.988 30.929 13.676C30.521 13.356 30.205 12.9 29.981 12.308C29.757 11.716 29.645 10.996 29.645 10.148C29.645 8.86 29.889 7.88 30.377 7.208C30.873 6.536 31.545 6.2 32.393 6.2C33.249 6.2 33.921 6.536 34.409 7.208C34.897 7.88 35.141 8.86 35.141 10.148C35.141 10.996 35.029 11.716 34.805 12.308C34.589 12.9 34.273 13.356 33.857 13.676C33.449 13.988 32.961 14.144 32.393 14.144ZM32.393 13.352C32.753 13.352 33.069 13.24 33.341 13.016C33.613 12.784 33.825 12.432 33.977 11.96C34.137 11.48 34.217 10.876 34.217 10.148C34.217 9.412 34.137 8.812 33.977 8.348C33.825 7.884 33.613 7.544 33.341 7.328C33.069 7.104 32.753 6.992 32.393 6.992C32.041 6.992 31.725 7.104 31.445 7.328C31.173 7.544 30.957 7.884 30.797 8.348C30.645 8.812 30.569 9.412 30.569 10.148C30.569 10.876 30.645 11.48 30.797 11.96C30.957 12.432 31.173 12.784 31.445 13.016C31.725 13.24 32.041 13.352 32.393 13.352ZM32.393 10.868C32.193 10.868 32.017 10.796 31.865 10.652C31.721 10.508 31.649 10.312 31.649 10.064C31.649 9.816 31.721 9.624 31.865 9.488C32.017 9.344 32.193 9.272 32.393 9.272C32.601 9.272 32.777 9.344 32.921 9.488C33.065 9.624 33.137 9.816 33.137 10.064C33.137 10.312 33.065 10.508 32.921 10.652C32.777 10.796 32.601 10.868 32.393 10.868Z" fill="#F7F7F7"/>
<path d="M76.6117 14.144C76.0437 14.144 75.5557 13.988 75.1477 13.676C74.7397 13.356 74.4237 12.9 74.1997 12.308C73.9757 11.716 73.8637 10.996 73.8637 10.148C73.8637 8.86 74.1077 7.88 74.5957 7.208C75.0917 6.536 75.7637 6.2 76.6117 6.2C77.4677 6.2 78.1397 6.536 78.6277 7.208C79.1157 7.88 79.3597 8.86 79.3597 10.148C79.3597 10.996 79.2477 11.716 79.0237 12.308C78.8077 12.9 78.4917 13.356 78.0757 13.676C77.6677 13.988 77.1797 14.144 76.6117 14.144ZM76.6117 13.352C76.9717 13.352 77.2877 13.24 77.5597 13.016C77.8317 12.784 78.0437 12.432 78.1957 11.96C78.3557 11.48 78.4357 10.876 78.4357 10.148C78.4357 9.412 78.3557 8.812 78.1957 8.348C78.0437 7.884 77.8317 7.544 77.5597 7.328C77.2877 7.104 76.9717 6.992 76.6117 6.992C76.2597 6.992 75.9437 7.104 75.6637 7.328C75.3917 7.544 75.1757 7.884 75.0157 8.348C74.8637 8.812 74.7877 9.412 74.7877 10.148C74.7877 10.876 74.8637 11.48 75.0157 11.96C75.1757 12.432 75.3917 12.784 75.6637 13.016C75.9437 13.24 76.2597 13.352 76.6117 13.352ZM76.6117 10.868C76.4117 10.868 76.2357 10.796 76.0837 10.652C75.9397 10.508 75.8677 10.312 75.8677 10.064C75.8677 9.816 75.9397 9.624 76.0837 9.488C76.2357 9.344 76.4117 9.272 76.6117 9.272C76.8197 9.272 76.9957 9.344 77.1397 9.488C77.2837 9.624 77.3557 9.816 77.3557 10.064C77.3557 10.312 77.2837 10.508 77.1397 10.652C76.9957 10.796 76.8197 10.868 76.6117 10.868ZM82.919 14C82.951 13.272 83.019 12.608 83.123 12.008C83.227 11.408 83.379 10.844 83.579 10.316C83.779 9.78 84.035 9.26 84.347 8.756C84.659 8.252 85.031 7.732 85.463 7.196H81.047V6.344H86.591V6.956C86.079 7.532 85.659 8.084 85.331 8.612C85.003 9.14 84.743 9.676 84.551 10.22C84.359 10.764 84.215 11.344 84.119 11.96C84.031 12.568 83.975 13.248 83.951 14H82.919ZM91.0023 14.144C90.7383 14.144 90.5103 14.052 90.3183 13.868C90.1263 13.676 90.0303 13.432 90.0303 13.136C90.0303 12.832 90.1263 12.588 90.3183 12.404C90.5103 12.212 90.7383 12.116 91.0023 12.116C91.2743 12.116 91.5023 12.212 91.6863 12.404C91.8783 12.588 91.9743 12.832 91.9743 13.136C91.9743 13.432 91.8783 13.676 91.6863 13.868C91.5023 14.052 91.2743 14.144 91.0023 14.144ZM95.7617 14V13.184H97.9697V7.544H96.2537V6.908C96.5577 6.868 96.8257 6.82 97.0577 6.764C97.2897 6.708 97.5017 6.648 97.6937 6.584C97.8857 6.512 98.0617 6.432 98.2217 6.344H98.9537V13.184H100.958V14H95.7617ZM105.393 14.144C104.825 14.144 104.337 13.988 103.929 13.676C103.521 13.356 103.205 12.9 102.981 12.308C102.757 11.716 102.645 10.996 102.645 10.148C102.645 8.86 102.889 7.88 103.377 7.208C103.873 6.536 104.545 6.2 105.393 6.2C106.249 6.2 106.921 6.536 107.409 7.208C107.897 7.88 108.141 8.86 108.141 10.148C108.141 10.996 108.029 11.716 107.805 12.308C107.589 12.9 107.273 13.356 106.857 13.676C106.449 13.988 105.961 14.144 105.393 14.144ZM105.393 13.352C105.753 13.352 106.069 13.24 106.341 13.016C106.613 12.784 106.825 12.432 106.977 11.96C107.137 11.48 107.217 10.876 107.217 10.148C107.217 9.412 107.137 8.812 106.977 8.348C106.825 7.884 106.613 7.544 106.341 7.328C106.069 7.104 105.753 6.992 105.393 6.992C105.041 6.992 104.725 7.104 104.445 7.328C104.173 7.544 103.957 7.884 103.797 8.348C103.645 8.812 103.569 9.412 103.569 10.148C103.569 10.876 103.645 11.48 103.797 11.96C103.957 12.432 104.173 12.784 104.445 13.016C104.725 13.24 105.041 13.352 105.393 13.352ZM105.393 10.868C105.193 10.868 105.017 10.796 104.865 10.652C104.721 10.508 104.649 10.312 104.649 10.064C104.649 9.816 104.721 9.624 104.865 9.488C105.017 9.344 105.193 9.272 105.393 9.272C105.601 9.272 105.777 9.344 105.921 9.488C106.065 9.624 106.137 9.816 106.137 10.064C106.137 10.312 106.065 10.508 105.921 10.652C105.777 10.796 105.601 10.868 105.393 10.868Z" fill="#F7F7F7"/>
<path d="M147.176 14V13.184H149.384V7.544H147.668V6.908C147.972 6.868 148.24 6.82 148.472 6.764C148.704 6.708 148.916 6.648 149.108 6.584C149.3 6.512 149.476 6.432 149.636 6.344H150.368V13.184H152.372V14H147.176ZM157.623 14V8.72C157.631 8.512 157.639 8.288 157.647 8.048C157.663 7.8 157.675 7.572 157.683 7.364H157.623C157.503 7.548 157.375 7.736 157.239 7.928C157.103 8.112 156.971 8.296 156.843 8.48L154.767 11.096H159.747V11.888H153.675V11.228L157.503 6.344H158.559V14H157.623ZM164.002 14.144C163.738 14.144 163.51 14.052 163.318 13.868C163.126 13.676 163.03 13.432 163.03 13.136C163.03 12.832 163.126 12.588 163.318 12.404C163.51 12.212 163.738 12.116 164.002 12.116C164.274 12.116 164.502 12.212 164.686 12.404C164.878 12.588 164.974 12.832 164.974 13.136C164.974 13.432 164.878 13.676 164.686 13.868C164.502 14.052 164.274 14.144 164.002 14.144ZM168.762 14V13.184H170.97V7.544H169.254V6.908C169.558 6.868 169.826 6.82 170.058 6.764C170.29 6.708 170.502 6.648 170.694 6.584C170.886 6.512 171.062 6.432 171.222 6.344H171.954V13.184H173.958V14H168.762ZM178.393 14.144C177.825 14.144 177.337 13.988 176.929 13.676C176.521 13.356 176.205 12.9 175.981 12.308C175.757 11.716 175.645 10.996 175.645 10.148C175.645 8.86 175.889 7.88 176.377 7.208C176.873 6.536 177.545 6.2 178.393 6.2C179.249 6.2 179.921 6.536 180.409 7.208C180.897 7.88 181.141 8.86 181.141 10.148C181.141 10.996 181.029 11.716 180.805 12.308C180.589 12.9 180.273 13.356 179.857 13.676C179.449 13.988 178.961 14.144 178.393 14.144ZM178.393 13.352C178.753 13.352 179.069 13.24 179.341 13.016C179.613 12.784 179.825 12.432 179.977 11.96C180.137 11.48 180.217 10.876 180.217 10.148C180.217 9.412 180.137 8.812 179.977 8.348C179.825 7.884 179.613 7.544 179.341 7.328C179.069 7.104 178.753 6.992 178.393 6.992C178.041 6.992 177.725 7.104 177.445 7.328C177.173 7.544 176.957 7.884 176.797 8.348C176.645 8.812 176.569 9.412 176.569 10.148C176.569 10.876 176.645 11.48 176.797 11.96C176.957 12.432 177.173 12.784 177.445 13.016C177.725 13.24 178.041 13.352 178.393 13.352ZM178.393 10.868C178.193 10.868 178.017 10.796 177.865 10.652C177.721 10.508 177.649 10.312 177.649 10.064C177.649 9.816 177.721 9.624 177.865 9.488C178.017 9.344 178.193 9.272 178.393 9.272C178.601 9.272 178.777 9.344 178.921 9.488C179.065 9.624 179.137 9.816 179.137 10.064C179.137 10.312 179.065 10.508 178.921 10.652C178.777 10.796 178.601 10.868 178.393 10.868Z" fill="#F7F7F7"/>
<path d="M219.888 14V13.412C220.752 12.652 221.48 11.984 222.072 11.408C222.672 10.824 223.128 10.3 223.44 9.836C223.752 9.372 223.908 8.928 223.908 8.504C223.908 8.064 223.772 7.704 223.5 7.424C223.228 7.144 222.808 7.004 222.24 7.004C221.88 7.004 221.544 7.092 221.232 7.268C220.928 7.444 220.652 7.664 220.404 7.928L219.84 7.364C220.184 7.012 220.552 6.732 220.944 6.524C221.344 6.308 221.816 6.2 222.36 6.2C222.872 6.2 223.312 6.296 223.68 6.488C224.056 6.672 224.344 6.932 224.544 7.268C224.752 7.604 224.856 8 224.856 8.456C224.856 8.936 224.708 9.42 224.412 9.908C224.116 10.396 223.7 10.912 223.164 11.456C222.636 11.992 222.024 12.58 221.328 13.22C221.568 13.196 221.808 13.18 222.048 13.172C222.288 13.156 222.524 13.148 222.756 13.148H225.276V14H219.888ZM227.371 14V13.184H229.579V7.544H227.863V6.908C228.167 6.868 228.435 6.82 228.667 6.764C228.899 6.708 229.111 6.648 229.303 6.584C229.495 6.512 229.671 6.432 229.831 6.344H230.563V13.184H232.567V14H227.371ZM237.002 14.144C236.738 14.144 236.51 14.052 236.318 13.868C236.126 13.676 236.03 13.432 236.03 13.136C236.03 12.832 236.126 12.588 236.318 12.404C236.51 12.212 236.738 12.116 237.002 12.116C237.274 12.116 237.502 12.212 237.686 12.404C237.878 12.588 237.974 12.832 237.974 13.136C237.974 13.432 237.878 13.676 237.686 13.868C237.502 14.052 237.274 14.144 237.002 14.144ZM241.762 14V13.184H243.97V7.544H242.254V6.908C242.558 6.868 242.826 6.82 243.058 6.764C243.29 6.708 243.502 6.648 243.694 6.584C243.886 6.512 244.062 6.432 244.222 6.344H244.954V13.184H246.958V14H241.762ZM251.393 14.144C250.825 14.144 250.337 13.988 249.929 13.676C249.521 13.356 249.205 12.9 248.981 12.308C248.757 11.716 248.645 10.996 248.645 10.148C248.645 8.86 248.889 7.88 249.377 7.208C249.873 6.536 250.545 6.2 251.393 6.2C252.249 6.2 252.921 6.536 253.409 7.208C253.897 7.88 254.141 8.86 254.141 10.148C254.141 10.996 254.029 11.716 253.805 12.308C253.589 12.9 253.273 13.356 252.857 13.676C252.449 13.988 251.961 14.144 251.393 14.144ZM251.393 13.352C251.753 13.352 252.069 13.24 252.341 13.016C252.613 12.784 252.825 12.432 252.977 11.96C253.137 11.48 253.217 10.876 253.217 10.148C253.217 9.412 253.137 8.812 252.977 8.348C252.825 7.884 252.613 7.544 252.341 7.328C252.069 7.104 251.753 6.992 251.393 6.992C251.041 6.992 250.725 7.104 250.445 7.328C250.173 7.544 249.957 7.884 249.797 8.348C249.645 8.812 249.569 9.412 249.569 10.148C249.569 10.876 249.645 11.48 249.797 11.96C249.957 12.432 250.173 12.784 250.445 13.016C250.725 13.24 251.041 13.352 251.393 13.352ZM251.393 10.868C251.193 10.868 251.017 10.796 250.865 10.652C250.721 10.508 250.649 10.312 250.649 10.064C250.649 9.816 250.721 9.624 250.865 9.488C251.017 9.344 251.193 9.272 251.393 9.272C251.601 9.272 251.777 9.344 251.921 9.488C252.065 9.624 252.137 9.816 252.137 10.064C252.137 10.312 252.065 10.508 251.921 10.652C251.777 10.796 251.601 10.868 251.393 10.868Z" fill="#F7F7F7"/>
<path d="M291.888 14V13.412C292.752 12.652 293.48 11.984 294.072 11.408C294.672 10.824 295.128 10.3 295.44 9.836C295.752 9.372 295.908 8.928 295.908 8.504C295.908 8.064 295.772 7.704 295.5 7.424C295.228 7.144 294.808 7.004 294.24 7.004C293.88 7.004 293.544 7.092 293.232 7.268C292.928 7.444 292.652 7.664 292.404 7.928L291.84 7.364C292.184 7.012 292.552 6.732 292.944 6.524C293.344 6.308 293.816 6.2 294.36 6.2C294.872 6.2 295.312 6.296 295.68 6.488C296.056 6.672 296.344 6.932 296.544 7.268C296.752 7.604 296.856 8 296.856 8.456C296.856 8.936 296.708 9.42 296.412 9.908C296.116 10.396 295.7 10.912 295.164 11.456C294.636 11.992 294.024 12.58 293.328 13.22C293.568 13.196 293.808 13.18 294.048 13.172C294.288 13.156 294.524 13.148 294.756 13.148H297.276V14H291.888ZM301.831 14.144C301.255 14.144 300.755 14.056 300.331 13.88C299.915 13.696 299.591 13.444 299.359 13.124C299.135 12.804 299.023 12.444 299.023 12.044C299.023 11.692 299.103 11.388 299.263 11.132C299.423 10.868 299.627 10.648 299.875 10.472C300.131 10.288 300.395 10.132 300.667 10.004V9.956C300.347 9.748 300.071 9.5 299.839 9.212C299.615 8.916 299.503 8.568 299.503 8.168C299.503 7.776 299.603 7.432 299.803 7.136C300.011 6.84 300.291 6.612 300.643 6.452C301.003 6.284 301.411 6.2 301.867 6.2C302.611 6.2 303.191 6.392 303.607 6.776C304.031 7.152 304.243 7.64 304.243 8.24C304.243 8.6 304.127 8.94 303.895 9.26C303.671 9.572 303.399 9.84 303.079 10.064V10.112C303.359 10.256 303.611 10.412 303.835 10.58C304.067 10.748 304.247 10.952 304.375 11.192C304.511 11.432 304.579 11.736 304.579 12.104C304.579 12.48 304.471 12.824 304.255 13.136C304.047 13.44 303.739 13.684 303.331 13.868C302.923 14.052 302.423 14.144 301.831 14.144ZM302.431 9.824C303.071 9.36 303.391 8.848 303.391 8.288C303.391 8.04 303.331 7.816 303.211 7.616C303.091 7.408 302.915 7.244 302.683 7.124C302.459 6.996 302.179 6.932 301.843 6.932C301.427 6.932 301.083 7.048 300.811 7.28C300.539 7.504 300.403 7.8 300.403 8.168C300.403 8.472 300.491 8.724 300.667 8.924C300.851 9.124 301.095 9.296 301.399 9.44C301.711 9.576 302.055 9.704 302.431 9.824ZM301.855 13.412C302.423 13.412 302.859 13.288 303.163 13.04C303.475 12.792 303.631 12.468 303.631 12.068C303.631 11.804 303.567 11.584 303.439 11.408C303.319 11.224 303.151 11.072 302.935 10.952C302.719 10.824 302.463 10.708 302.167 10.604C301.879 10.5 301.567 10.392 301.231 10.28C300.983 10.416 300.759 10.564 300.559 10.724C300.359 10.884 300.203 11.064 300.091 11.264C299.979 11.464 299.923 11.692 299.923 11.948C299.923 12.228 299.999 12.48 300.151 12.704C300.311 12.92 300.535 13.092 300.823 13.22C301.119 13.348 301.463 13.412 301.855 13.412ZM309.002 14.144C308.738 14.144 308.51 14.052 308.318 13.868C308.126 13.676 308.03 13.432 308.03 13.136C308.03 12.832 308.126 12.588 308.318 12.404C308.51 12.212 308.738 12.116 309.002 12.116C309.274 12.116 309.502 12.212 309.686 12.404C309.878 12.588 309.974 12.832 309.974 13.136C309.974 13.432 309.878 13.676 309.686 13.868C309.502 14.052 309.274 14.144 309.002 14.144ZM313.762 14V13.184H315.97V7.544H314.254V6.908C314.558 6.868 314.826 6.82 315.058 6.764C315.29 6.708 315.502 6.648 315.694 6.584C315.886 6.512 316.062 6.432 316.222 6.344H316.954V13.184H318.958V14H313.762ZM323.393 14.144C322.825 14.144 322.337 13.988 321.929 13.676C321.521 13.356 321.205 12.9 320.981 12.308C320.757 11.716 320.645 10.996 320.645 10.148C320.645 8.86 320.889 7.88 321.377 7.208C321.873 6.536 322.545 6.2 323.393 6.2C324.249 6.2 324.921 6.536 325.409 7.208C325.897 7.88 326.141 8.86 326.141 10.148C326.141 10.996 326.029 11.716 325.805 12.308C325.589 12.9 325.273 13.356 324.857 13.676C324.449 13.988 323.961 14.144 323.393 14.144ZM323.393 13.352C323.753 13.352 324.069 13.24 324.341 13.016C324.613 12.784 324.825 12.432 324.977 11.96C325.137 11.48 325.217 10.876 325.217 10.148C325.217 9.412 325.137 8.812 324.977 8.348C324.825 7.884 324.613 7.544 324.341 7.328C324.069 7.104 323.753 6.992 323.393 6.992C323.041 6.992 322.725 7.104 322.445 7.328C322.173 7.544 321.957 7.884 321.797 8.348C321.645 8.812 321.569 9.412 321.569 10.148C321.569 10.876 321.645 11.48 321.797 11.96C321.957 12.432 322.173 12.784 322.445 13.016C322.725 13.24 323.041 13.352 323.393 13.352ZM323.393 10.868C323.193 10.868 323.017 10.796 322.865 10.652C322.721 10.508 322.649 10.312 322.649 10.064C322.649 9.816 322.721 9.624 322.865 9.488C323.017 9.344 323.193 9.272 323.393 9.272C323.601 9.272 323.777 9.344 323.921 9.488C324.065 9.624 324.137 9.816 324.137 10.064C324.137 10.312 324.065 10.508 323.921 10.652C323.777 10.796 323.601 10.868 323.393 10.868Z" fill="#F7F7F7"/>
<g clip-path="url(#clip0_231_6153)">
<g clip-path="url(#clip1_231_6153)">
<rect y="193" width="48" height="32" rx="8" fill="#1E1F20" fill-opacity="0.08"/>
</g>
<path d="M6.95972 213V211.572H9.01172V207.168H7.31972V206.076C7.66372 206.02 7.95972 205.964 8.20772 205.908C8.46372 205.844 8.69172 205.772 8.89172 205.692C9.09172 205.604 9.28772 205.5 9.47972 205.38H10.7757V211.572H12.5037V213H6.95972ZM16.807 213.144C16.223 213.144 15.711 212.992 15.271 212.688C14.831 212.376 14.487 211.924 14.239 211.332C13.999 210.74 13.879 210.016 13.879 209.16C13.879 207.856 14.147 206.876 14.683 206.22C15.219 205.564 15.927 205.236 16.807 205.236C17.695 205.236 18.403 205.564 18.931 206.22C19.467 206.876 19.735 207.856 19.735 209.16C19.735 210.016 19.611 210.74 19.363 211.332C19.123 211.924 18.783 212.376 18.343 212.688C17.911 212.992 17.399 213.144 16.807 213.144ZM16.807 211.776C17.063 211.776 17.291 211.696 17.491 211.536C17.699 211.376 17.863 211.104 17.983 210.72C18.103 210.336 18.163 209.816 18.163 209.16C18.163 208.496 18.103 207.98 17.983 207.612C17.863 207.236 17.699 206.976 17.491 206.832C17.291 206.68 17.063 206.604 16.807 206.604C16.559 206.604 16.331 206.68 16.123 206.832C15.915 206.976 15.751 207.236 15.631 207.612C15.511 207.98 15.451 208.496 15.451 209.16C15.451 209.816 15.511 210.336 15.631 210.72C15.751 211.104 15.915 211.376 16.123 211.536C16.331 211.696 16.559 211.776 16.807 211.776ZM16.807 210.048C16.559 210.048 16.347 209.964 16.171 209.796C15.995 209.628 15.907 209.408 15.907 209.136C15.907 208.856 15.995 208.636 16.171 208.476C16.347 208.308 16.559 208.224 16.807 208.224C17.063 208.224 17.275 208.308 17.443 208.476C17.619 208.636 17.707 208.856 17.707 209.136C17.707 209.408 17.619 209.628 17.443 209.796C17.275 209.964 17.063 210.048 16.807 210.048ZM21.0983 213V205.176H22.9463L23.7143 207.948L23.9783 209.028H24.0263L24.2903 207.948L25.0583 205.176H26.9063V213H25.4183V210.576C25.4183 210.36 25.4263 210.092 25.4423 209.772C25.4583 209.444 25.4783 209.104 25.5023 208.752C25.5263 208.4 25.5503 208.064 25.5743 207.744C25.6063 207.424 25.6303 207.16 25.6463 206.952H25.6103L25.0103 209.04L24.4103 210.924H23.5463L22.9343 209.04L22.3703 206.952H22.3343C22.3503 207.16 22.3703 207.424 22.3943 207.744C22.4263 208.064 22.4543 208.4 22.4783 208.752C22.5023 209.104 22.5223 209.444 22.5383 209.772C22.5543 210.092 22.5623 210.36 22.5623 210.576V213H21.0983ZM30.9337 213V208.428H28.5337V207.048H32.6977V213H30.9337ZM31.7377 206.112C31.4017 206.112 31.1217 206.016 30.8977 205.824C30.6737 205.624 30.5617 205.364 30.5617 205.044C30.5617 204.716 30.6737 204.452 30.8977 204.252C31.1217 204.044 31.4017 203.94 31.7377 203.94C32.0817 203.94 32.3617 204.044 32.5777 204.252C32.8017 204.452 32.9137 204.716 32.9137 205.044C32.9137 205.364 32.8017 205.624 32.5777 205.824C32.3617 206.016 32.0817 206.112 31.7377 206.112ZM35.657 213V207.048H37.097L37.229 207.84H37.277C37.533 207.584 37.825 207.364 38.153 207.18C38.489 206.996 38.881 206.904 39.329 206.904C40.001 206.904 40.493 207.12 40.805 207.552C41.117 207.984 41.273 208.576 41.273 209.328V213H39.509V209.556C39.509 209.156 39.441 208.864 39.305 208.68C39.177 208.496 38.953 208.404 38.633 208.404C38.393 208.404 38.181 208.46 37.997 208.572C37.821 208.676 37.629 208.828 37.421 209.028V213H35.657Z" fill="#F7F7F7"/>
</g>
<g clip-path="url(#clip2_231_6153)">
<g clip-path="url(#clip3_231_6153)">
<rect x="112" y="193" width="48" height="32" rx="8" fill="#1E1F20" fill-opacity="0.08"/>
</g>
<path d="M125.903 213V211.992C126.631 211.376 127.267 210.82 127.811 210.324C128.363 209.82 128.791 209.36 129.095 208.944C129.399 208.52 129.551 208.128 129.551 207.768C129.551 207.392 129.439 207.108 129.215 206.916C128.999 206.716 128.695 206.616 128.303 206.616C127.999 206.616 127.719 206.696 127.463 206.856C127.215 207.008 126.983 207.188 126.767 207.396L125.819 206.448C126.211 206.04 126.615 205.736 127.031 205.536C127.455 205.336 127.959 205.236 128.543 205.236C129.071 205.236 129.535 205.336 129.935 205.536C130.343 205.736 130.659 206.02 130.883 206.388C131.115 206.748 131.231 207.172 131.231 207.66C131.231 208.092 131.099 208.528 130.835 208.968C130.579 209.408 130.235 209.852 129.803 210.3C129.379 210.74 128.923 211.176 128.435 211.608C128.651 211.584 128.887 211.564 129.143 211.548C129.399 211.524 129.623 211.512 129.815 211.512H131.627V213H125.903ZM136.494 213V208.548C136.494 208.308 136.502 208.032 136.518 207.72C136.534 207.4 136.546 207.12 136.554 206.88H136.506C136.378 207.088 136.238 207.3 136.086 207.516C135.942 207.732 135.806 207.952 135.678 208.176L134.526 209.832H139.098V211.176H132.822V209.964L136.002 205.38H138.138V213H136.494ZM140.462 213V204.588H142.226V206.652L142.13 207.792H142.166C142.39 207.56 142.662 207.356 142.982 207.18C143.31 206.996 143.698 206.904 144.146 206.904C144.818 206.904 145.306 207.12 145.61 207.552C145.922 207.984 146.078 208.576 146.078 209.328V213H144.314V209.556C144.314 209.156 144.246 208.864 144.11 208.68C143.982 208.496 143.758 208.404 143.438 208.404C143.198 208.404 142.986 208.46 142.802 208.572C142.626 208.676 142.434 208.828 142.226 209.028V213H140.462Z" fill="#F7F7F7"/>
</g>
<g clip-path="url(#clip4_231_6153)">
<g clip-path="url(#clip5_231_6153)">
<rect x="56" y="193" width="48" height="32" rx="8" fill="#1E1F20" fill-opacity="0.08"/>
</g>
<path d="M73.7527 213V211.572H75.8047V207.168H74.1127V206.076C74.4567 206.02 74.7527 205.964 75.0007 205.908C75.2567 205.844 75.4847 205.772 75.6847 205.692C75.8847 205.604 76.0807 205.5 76.2727 205.38H77.5687V211.572H79.2967V213H73.7527ZM80.864 213V204.588H82.628V206.652L82.532 207.792H82.568C82.792 207.56 83.064 207.356 83.384 207.18C83.712 206.996 84.1 206.904 84.548 206.904C85.22 206.904 85.708 207.12 86.012 207.552C86.324 207.984 86.48 208.576 86.48 209.328V213H84.716V209.556C84.716 209.156 84.648 208.864 84.512 208.68C84.384 208.496 84.16 208.404 83.84 208.404C83.6 208.404 83.388 208.46 83.204 208.572C83.028 208.676 82.836 208.828 82.628 209.028V213H80.864Z" fill="#F7F7F7"/>
</g>
<g clip-path="url(#clip6_231_6153)">
<g clip-path="url(#clip7_231_6153)">
<rect x="224" y="193" width="48" height="32" rx="8" fill="#1E1F20" fill-opacity="0.08"/>
</g>
<path d="M244.153 213.144C243.721 213.144 243.325 213.096 242.965 213C242.613 212.912 242.297 212.788 242.017 212.628C241.737 212.468 241.501 212.28 241.309 212.064L242.125 210.948C242.381 211.172 242.669 211.356 242.989 211.5C243.309 211.644 243.641 211.716 243.985 211.716C244.257 211.716 244.501 211.684 244.717 211.62C244.933 211.548 245.101 211.444 245.221 211.308C245.349 211.172 245.413 211.008 245.413 210.816C245.413 210.592 245.345 210.4 245.209 210.24C245.073 210.072 244.837 209.944 244.501 209.856C244.173 209.768 243.709 209.724 243.109 209.724V208.476C243.613 208.476 244.013 208.432 244.309 208.344C244.605 208.256 244.821 208.136 244.957 207.984C245.093 207.832 245.161 207.656 245.161 207.456C245.161 207.184 245.061 206.976 244.861 206.832C244.661 206.688 244.385 206.616 244.033 206.616C243.737 206.616 243.457 206.676 243.193 206.796C242.937 206.908 242.677 207.072 242.413 207.288L241.525 206.208C241.901 205.904 242.305 205.668 242.737 205.5C243.169 205.324 243.629 205.236 244.117 205.236C244.669 205.236 245.157 205.32 245.581 205.488C246.005 205.648 246.333 205.884 246.565 206.196C246.805 206.5 246.925 206.876 246.925 207.324C246.925 207.716 246.797 208.052 246.541 208.332C246.285 208.612 245.929 208.84 245.473 209.016V209.064C245.793 209.152 246.081 209.28 246.337 209.448C246.601 209.608 246.805 209.812 246.949 210.06C247.101 210.308 247.177 210.596 247.177 210.924C247.177 211.396 247.037 211.8 246.757 212.136C246.477 212.464 246.109 212.716 245.653 212.892C245.197 213.06 244.697 213.144 244.153 213.144ZM248.696 213V205.176H250.544L251.312 207.948L251.576 209.028H251.624L251.888 207.948L252.656 205.176H254.504V213H253.016V210.576C253.016 210.36 253.024 210.092 253.04 209.772C253.056 209.444 253.076 209.104 253.1 208.752C253.124 208.4 253.148 208.064 253.172 207.744C253.204 207.424 253.228 207.16 253.244 206.952H253.208L252.608 209.04L252.008 210.924H251.144L250.532 209.04L249.968 206.952H249.932C249.948 207.16 249.968 207.424 249.992 207.744C250.024 208.064 250.052 208.4 250.076 208.752C250.1 209.104 250.12 209.444 250.136 209.772C250.152 210.092 250.16 210.36 250.16 210.576V213H248.696Z" fill="#F7F7F7"/>
</g>
<g clip-path="url(#clip8_231_6153)">
<g clip-path="url(#clip9_231_6153)">
<rect x="280" y="193" width="48" height="32" rx="8" fill="#1E1F20" fill-opacity="0.08"/>
</g>
<path d="M297.753 213V211.572H299.805V207.168H298.113V206.076C298.457 206.02 298.753 205.964 299.001 205.908C299.257 205.844 299.485 205.772 299.685 205.692C299.885 205.604 300.081 205.5 300.273 205.38H301.569V211.572H303.297V213H297.753ZM306.712 213V210.36L304.192 205.176H306.088L306.88 207.06C307 207.356 307.116 207.652 307.228 207.948C307.348 208.236 307.468 208.536 307.588 208.848H307.636C307.764 208.536 307.888 208.236 308.008 207.948C308.136 207.652 308.256 207.356 308.368 207.06L309.16 205.176H311.008L308.488 210.36V213H306.712Z" fill="#F7F7F7"/>
</g>
<path d="M294.588 106.144C294.004 106.144 293.496 106.056 293.064 105.88C292.632 105.704 292.3 105.46 292.068 105.148C291.844 104.828 291.732 104.464 291.732 104.056C291.732 103.744 291.796 103.472 291.924 103.24C292.06 103.008 292.236 102.808 292.452 102.64C292.668 102.464 292.908 102.312 293.172 102.184V102.136C292.852 101.912 292.584 101.656 292.368 101.368C292.16 101.08 292.056 100.736 292.056 100.336C292.056 99.904 292.164 99.532 292.38 99.22C292.604 98.9 292.912 98.656 293.304 98.488C293.696 98.32 294.144 98.236 294.648 98.236C295.408 98.236 296.012 98.428 296.46 98.812C296.916 99.188 297.144 99.692 297.144 100.324C297.144 100.676 297.036 100.996 296.82 101.284C296.604 101.564 296.348 101.8 296.052 101.992V102.04C296.324 102.168 296.568 102.324 296.784 102.508C297 102.684 297.168 102.896 297.288 103.144C297.416 103.392 297.48 103.688 297.48 104.032C297.48 104.432 297.368 104.792 297.144 105.112C296.92 105.424 296.592 105.676 296.16 105.868C295.736 106.052 295.212 106.144 294.588 106.144ZM295.116 101.56C295.5 101.208 295.692 100.836 295.692 100.444C295.692 100.244 295.648 100.072 295.56 99.928C295.48 99.784 295.36 99.672 295.2 99.592C295.04 99.504 294.844 99.46 294.612 99.46C294.332 99.46 294.092 99.536 293.892 99.688C293.7 99.832 293.604 100.048 293.604 100.336C293.604 100.544 293.668 100.72 293.796 100.864C293.924 101.008 294.1 101.136 294.324 101.248C294.556 101.36 294.82 101.464 295.116 101.56ZM294.636 104.92C294.996 104.92 295.284 104.844 295.5 104.692C295.724 104.532 295.836 104.292 295.836 103.972C295.836 103.804 295.792 103.656 295.704 103.528C295.616 103.4 295.488 103.288 295.32 103.192C295.16 103.096 294.968 103.008 294.744 102.928C294.52 102.84 294.272 102.744 294 102.64C293.856 102.744 293.728 102.86 293.616 102.988C293.504 103.108 293.416 103.244 293.352 103.396C293.288 103.54 293.256 103.692 293.256 103.852C293.256 104.076 293.316 104.268 293.436 104.428C293.556 104.588 293.72 104.712 293.928 104.8C294.136 104.88 294.372 104.92 294.636 104.92ZM301.795 106.144C301.211 106.144 300.699 105.992 300.259 105.688C299.819 105.376 299.475 104.924 299.227 104.332C298.987 103.74 298.867 103.016 298.867 102.16C298.867 100.856 299.135 99.876 299.671 99.22C300.207 98.564 300.915 98.236 301.795 98.236C302.683 98.236 303.391 98.564 303.919 99.22C304.455 99.876 304.723 100.856 304.723 102.16C304.723 103.016 304.599 103.74 304.351 104.332C304.111 104.924 303.771 105.376 303.331 105.688C302.899 105.992 302.387 106.144 301.795 106.144ZM301.795 104.776C302.051 104.776 302.279 104.696 302.479 104.536C302.687 104.376 302.851 104.104 302.971 103.72C303.091 103.336 303.151 102.816 303.151 102.16C303.151 101.496 303.091 100.98 302.971 100.612C302.851 100.236 302.687 99.976 302.479 99.832C302.279 99.68 302.051 99.604 301.795 99.604C301.547 99.604 301.319 99.68 301.111 99.832C300.903 99.976 300.739 100.236 300.619 100.612C300.499 100.98 300.439 101.496 300.439 102.16C300.439 102.816 300.499 103.336 300.619 103.72C300.739 104.104 300.903 104.376 301.111 104.536C301.319 104.696 301.547 104.776 301.795 104.776ZM301.795 103.048C301.547 103.048 301.335 102.964 301.159 102.796C300.983 102.628 300.895 102.408 300.895 102.136C300.895 101.856 300.983 101.636 301.159 101.476C301.335 101.308 301.547 101.224 301.795 101.224C302.051 101.224 302.263 101.308 302.431 101.476C302.607 101.636 302.695 101.856 302.695 102.136C302.695 102.408 302.607 102.628 302.431 102.796C302.263 102.964 302.051 103.048 301.795 103.048ZM308.991 106.144C308.583 106.144 308.247 106.008 307.983 105.736C307.727 105.464 307.599 105.132 307.599 104.74C307.599 104.348 307.727 104.016 307.983 103.744C308.247 103.464 308.583 103.324 308.991 103.324C309.407 103.324 309.743 103.464 309.999 103.744C310.255 104.016 310.383 104.348 310.383 104.74C310.383 105.132 310.255 105.464 309.999 105.736C309.743 106.008 309.407 106.144 308.991 106.144ZM316.186 106.144C315.602 106.144 315.09 105.992 314.65 105.688C314.21 105.376 313.866 104.924 313.618 104.332C313.378 103.74 313.258 103.016 313.258 102.16C313.258 100.856 313.526 99.876 314.062 99.22C314.598 98.564 315.306 98.236 316.186 98.236C317.074 98.236 317.782 98.564 318.31 99.22C318.846 99.876 319.114 100.856 319.114 102.16C319.114 103.016 318.99 103.74 318.742 104.332C318.502 104.924 318.162 105.376 317.722 105.688C317.29 105.992 316.778 106.144 316.186 106.144ZM316.186 104.776C316.442 104.776 316.67 104.696 316.87 104.536C317.078 104.376 317.242 104.104 317.362 103.72C317.482 103.336 317.542 102.816 317.542 102.16C317.542 101.496 317.482 100.98 317.362 100.612C317.242 100.236 317.078 99.976 316.87 99.832C316.67 99.68 316.442 99.604 316.186 99.604C315.938 99.604 315.71 99.68 315.502 99.832C315.294 99.976 315.13 100.236 315.01 100.612C314.89 100.98 314.83 101.496 314.83 102.16C314.83 102.816 314.89 103.336 315.01 103.72C315.13 104.104 315.294 104.376 315.502 104.536C315.71 104.696 315.938 104.776 316.186 104.776ZM316.186 103.048C315.938 103.048 315.726 102.964 315.55 102.796C315.374 102.628 315.286 102.408 315.286 102.136C315.286 101.856 315.374 101.636 315.55 101.476C315.726 101.308 315.938 101.224 316.186 101.224C316.442 101.224 316.654 101.308 316.822 101.476C316.998 101.636 317.086 101.856 317.086 102.136C317.086 102.408 316.998 102.628 316.822 102.796C316.654 102.964 316.442 103.048 316.186 103.048ZM323.381 106.144C322.797 106.144 322.285 105.992 321.845 105.688C321.405 105.376 321.061 104.924 320.813 104.332C320.573 103.74 320.453 103.016 320.453 102.16C320.453 100.856 320.721 99.876 321.257 99.22C321.793 98.564 322.501 98.236 323.381 98.236C324.269 98.236 324.977 98.564 325.505 99.22C326.041 99.876 326.309 100.856 326.309 102.16C326.309 103.016 326.185 103.74 325.937 104.332C325.697 104.924 325.357 105.376 324.917 105.688C324.485 105.992 323.973 106.144 323.381 106.144ZM323.381 104.776C323.637 104.776 323.865 104.696 324.065 104.536C324.273 104.376 324.437 104.104 324.557 103.72C324.677 103.336 324.737 102.816 324.737 102.16C324.737 101.496 324.677 100.98 324.557 100.612C324.437 100.236 324.273 99.976 324.065 99.832C323.865 99.68 323.637 99.604 323.381 99.604C323.133 99.604 322.905 99.68 322.697 99.832C322.489 99.976 322.325 100.236 322.205 100.612C322.085 100.98 322.025 101.496 322.025 102.16C322.025 102.816 322.085 103.336 322.205 103.72C322.325 104.104 322.489 104.376 322.697 104.536C322.905 104.696 323.133 104.776 323.381 104.776ZM323.381 103.048C323.133 103.048 322.921 102.964 322.745 102.796C322.569 102.628 322.481 102.408 322.481 102.136C322.481 101.856 322.569 101.636 322.745 101.476C322.921 101.308 323.133 101.224 323.381 101.224C323.637 101.224 323.849 101.308 324.017 101.476C324.193 101.636 324.281 101.856 324.281 102.136C324.281 102.408 324.193 102.628 324.017 102.796C323.849 102.964 323.637 103.048 323.381 103.048Z" fill="#AC90FF"/>
<path opacity="0.8" d="M294.588 67.144C294.004 67.144 293.496 67.056 293.064 66.88C292.632 66.704 292.3 66.46 292.068 66.148C291.844 65.828 291.732 65.464 291.732 65.056C291.732 64.744 291.796 64.472 291.924 64.24C292.06 64.008 292.236 63.808 292.452 63.64C292.668 63.464 292.908 63.312 293.172 63.184V63.136C292.852 62.912 292.584 62.656 292.368 62.368C292.16 62.08 292.056 61.736 292.056 61.336C292.056 60.904 292.164 60.532 292.38 60.22C292.604 59.9 292.912 59.656 293.304 59.488C293.696 59.32 294.144 59.236 294.648 59.236C295.408 59.236 296.012 59.428 296.46 59.812C296.916 60.188 297.144 60.692 297.144 61.324C297.144 61.676 297.036 61.996 296.82 62.284C296.604 62.564 296.348 62.8 296.052 62.992V63.04C296.324 63.168 296.568 63.324 296.784 63.508C297 63.684 297.168 63.896 297.288 64.144C297.416 64.392 297.48 64.688 297.48 65.032C297.48 65.432 297.368 65.792 297.144 66.112C296.92 66.424 296.592 66.676 296.16 66.868C295.736 67.052 295.212 67.144 294.588 67.144ZM295.116 62.56C295.5 62.208 295.692 61.836 295.692 61.444C295.692 61.244 295.648 61.072 295.56 60.928C295.48 60.784 295.36 60.672 295.2 60.592C295.04 60.504 294.844 60.46 294.612 60.46C294.332 60.46 294.092 60.536 293.892 60.688C293.7 60.832 293.604 61.048 293.604 61.336C293.604 61.544 293.668 61.72 293.796 61.864C293.924 62.008 294.1 62.136 294.324 62.248C294.556 62.36 294.82 62.464 295.116 62.56ZM294.636 65.92C294.996 65.92 295.284 65.844 295.5 65.692C295.724 65.532 295.836 65.292 295.836 64.972C295.836 64.804 295.792 64.656 295.704 64.528C295.616 64.4 295.488 64.288 295.32 64.192C295.16 64.096 294.968 64.008 294.744 63.928C294.52 63.84 294.272 63.744 294 63.64C293.856 63.744 293.728 63.86 293.616 63.988C293.504 64.108 293.416 64.244 293.352 64.396C293.288 64.54 293.256 64.692 293.256 64.852C293.256 65.076 293.316 65.268 293.436 65.428C293.556 65.588 293.72 65.712 293.928 65.8C294.136 65.88 294.372 65.92 294.636 65.92ZM301.783 67.144C301.199 67.144 300.691 67.056 300.259 66.88C299.827 66.704 299.495 66.46 299.263 66.148C299.039 65.828 298.927 65.464 298.927 65.056C298.927 64.744 298.991 64.472 299.119 64.24C299.255 64.008 299.431 63.808 299.647 63.64C299.863 63.464 300.103 63.312 300.367 63.184V63.136C300.047 62.912 299.779 62.656 299.563 62.368C299.355 62.08 299.251 61.736 299.251 61.336C299.251 60.904 299.359 60.532 299.575 60.22C299.799 59.9 300.107 59.656 300.499 59.488C300.891 59.32 301.339 59.236 301.843 59.236C302.603 59.236 303.207 59.428 303.655 59.812C304.111 60.188 304.339 60.692 304.339 61.324C304.339 61.676 304.231 61.996 304.015 62.284C303.799 62.564 303.543 62.8 303.247 62.992V63.04C303.519 63.168 303.763 63.324 303.979 63.508C304.195 63.684 304.363 63.896 304.483 64.144C304.611 64.392 304.675 64.688 304.675 65.032C304.675 65.432 304.563 65.792 304.339 66.112C304.115 66.424 303.787 66.676 303.355 66.868C302.931 67.052 302.407 67.144 301.783 67.144ZM302.311 62.56C302.695 62.208 302.887 61.836 302.887 61.444C302.887 61.244 302.843 61.072 302.755 60.928C302.675 60.784 302.555 60.672 302.395 60.592C302.235 60.504 302.039 60.46 301.807 60.46C301.527 60.46 301.287 60.536 301.087 60.688C300.895 60.832 300.799 61.048 300.799 61.336C300.799 61.544 300.863 61.72 300.991 61.864C301.119 62.008 301.295 62.136 301.519 62.248C301.751 62.36 302.015 62.464 302.311 62.56ZM301.831 65.92C302.191 65.92 302.479 65.844 302.695 65.692C302.919 65.532 303.031 65.292 303.031 64.972C303.031 64.804 302.987 64.656 302.899 64.528C302.811 64.4 302.683 64.288 302.515 64.192C302.355 64.096 302.163 64.008 301.939 63.928C301.715 63.84 301.467 63.744 301.195 63.64C301.051 63.744 300.923 63.86 300.811 63.988C300.699 64.108 300.611 64.244 300.547 64.396C300.483 64.54 300.451 64.692 300.451 64.852C300.451 65.076 300.511 65.268 300.631 65.428C300.751 65.588 300.915 65.712 301.123 65.8C301.331 65.88 301.567 65.92 301.831 65.92ZM308.991 67.144C308.583 67.144 308.247 67.008 307.983 66.736C307.727 66.464 307.599 66.132 307.599 65.74C307.599 65.348 307.727 65.016 307.983 64.744C308.247 64.464 308.583 64.324 308.991 64.324C309.407 64.324 309.743 64.464 309.999 64.744C310.255 65.016 310.383 65.348 310.383 65.74C310.383 66.132 310.255 66.464 309.999 66.736C309.743 67.008 309.407 67.144 308.991 67.144ZM316.186 67.144C315.602 67.144 315.09 66.992 314.65 66.688C314.21 66.376 313.866 65.924 313.618 65.332C313.378 64.74 313.258 64.016 313.258 63.16C313.258 61.856 313.526 60.876 314.062 60.22C314.598 59.564 315.306 59.236 316.186 59.236C317.074 59.236 317.782 59.564 318.31 60.22C318.846 60.876 319.114 61.856 319.114 63.16C319.114 64.016 318.99 64.74 318.742 65.332C318.502 65.924 318.162 66.376 317.722 66.688C317.29 66.992 316.778 67.144 316.186 67.144ZM316.186 65.776C316.442 65.776 316.67 65.696 316.87 65.536C317.078 65.376 317.242 65.104 317.362 64.72C317.482 64.336 317.542 63.816 317.542 63.16C317.542 62.496 317.482 61.98 317.362 61.612C317.242 61.236 317.078 60.976 316.87 60.832C316.67 60.68 316.442 60.604 316.186 60.604C315.938 60.604 315.71 60.68 315.502 60.832C315.294 60.976 315.13 61.236 315.01 61.612C314.89 61.98 314.83 62.496 314.83 63.16C314.83 63.816 314.89 64.336 315.01 64.72C315.13 65.104 315.294 65.376 315.502 65.536C315.71 65.696 315.938 65.776 316.186 65.776ZM316.186 64.048C315.938 64.048 315.726 63.964 315.55 63.796C315.374 63.628 315.286 63.408 315.286 63.136C315.286 62.856 315.374 62.636 315.55 62.476C315.726 62.308 315.938 62.224 316.186 62.224C316.442 62.224 316.654 62.308 316.822 62.476C316.998 62.636 317.086 62.856 317.086 63.136C317.086 63.408 316.998 63.628 316.822 63.796C316.654 63.964 316.442 64.048 316.186 64.048ZM323.381 67.144C322.797 67.144 322.285 66.992 321.845 66.688C321.405 66.376 321.061 65.924 320.813 65.332C320.573 64.74 320.453 64.016 320.453 63.16C320.453 61.856 320.721 60.876 321.257 60.22C321.793 59.564 322.501 59.236 323.381 59.236C324.269 59.236 324.977 59.564 325.505 60.22C326.041 60.876 326.309 61.856 326.309 63.16C326.309 64.016 326.185 64.74 325.937 65.332C325.697 65.924 325.357 66.376 324.917 66.688C324.485 66.992 323.973 67.144 323.381 67.144ZM323.381 65.776C323.637 65.776 323.865 65.696 324.065 65.536C324.273 65.376 324.437 65.104 324.557 64.72C324.677 64.336 324.737 63.816 324.737 63.16C324.737 62.496 324.677 61.98 324.557 61.612C324.437 61.236 324.273 60.976 324.065 60.832C323.865 60.68 323.637 60.604 323.381 60.604C323.133 60.604 322.905 60.68 322.697 60.832C322.489 60.976 322.325 61.236 322.205 61.612C322.085 61.98 322.025 62.496 322.025 63.16C322.025 63.816 322.085 64.336 322.205 64.72C322.325 65.104 322.489 65.376 322.697 65.536C322.905 65.696 323.133 65.776 323.381 65.776ZM323.381 64.048C323.133 64.048 322.921 63.964 322.745 63.796C322.569 63.628 322.481 63.408 322.481 63.136C322.481 62.856 322.569 62.636 322.745 62.476C322.921 62.308 323.133 62.224 323.381 62.224C323.637 62.224 323.849 62.308 324.017 62.476C324.193 62.636 324.281 62.856 324.281 63.136C324.281 63.408 324.193 63.628 324.017 63.796C323.849 63.964 323.637 64.048 323.381 64.048Z" fill="#6FCF97"/>
<path d="M294.316 143C294.348 142.368 294.408 141.784 294.496 141.248C294.592 140.712 294.724 140.208 294.892 139.736C295.068 139.256 295.292 138.784 295.564 138.32C295.836 137.848 296.172 137.364 296.572 136.868H292.744V135.38H298.468V136.46C297.988 136.996 297.6 137.5 297.304 137.972C297.008 138.444 296.776 138.924 296.608 139.412C296.448 139.9 296.328 140.436 296.248 141.02C296.176 141.596 296.124 142.256 296.092 143H294.316ZM299.891 143V141.992C300.619 141.376 301.255 140.82 301.799 140.324C302.351 139.82 302.779 139.36 303.083 138.944C303.387 138.52 303.539 138.128 303.539 137.768C303.539 137.392 303.427 137.108 303.203 136.916C302.987 136.716 302.683 136.616 302.291 136.616C301.987 136.616 301.707 136.696 301.451 136.856C301.203 137.008 300.971 137.188 300.755 137.396L299.807 136.448C300.199 136.04 300.603 135.736 301.019 135.536C301.443 135.336 301.947 135.236 302.531 135.236C303.059 135.236 303.523 135.336 303.923 135.536C304.331 135.736 304.647 136.02 304.871 136.388C305.103 136.748 305.219 137.172 305.219 137.66C305.219 138.092 305.087 138.528 304.823 138.968C304.567 139.408 304.223 139.852 303.791 140.3C303.367 140.74 302.911 141.176 302.423 141.608C302.639 141.584 302.875 141.564 303.131 141.548C303.387 141.524 303.611 141.512 303.803 141.512H305.615V143H299.891ZM309.991 143.144C309.583 143.144 309.247 143.008 308.983 142.736C308.727 142.464 308.599 142.132 308.599 141.74C308.599 141.348 308.727 141.016 308.983 140.744C309.247 140.464 309.583 140.324 309.991 140.324C310.407 140.324 310.743 140.464 310.999 140.744C311.255 141.016 311.383 141.348 311.383 141.74C311.383 142.132 311.255 142.464 310.999 142.736C310.743 143.008 310.407 143.144 309.991 143.144ZM317.186 143.144C316.602 143.144 316.09 142.992 315.65 142.688C315.21 142.376 314.866 141.924 314.618 141.332C314.378 140.74 314.258 140.016 314.258 139.16C314.258 137.856 314.526 136.876 315.062 136.22C315.598 135.564 316.306 135.236 317.186 135.236C318.074 135.236 318.782 135.564 319.31 136.22C319.846 136.876 320.114 137.856 320.114 139.16C320.114 140.016 319.99 140.74 319.742 141.332C319.502 141.924 319.162 142.376 318.722 142.688C318.29 142.992 317.778 143.144 317.186 143.144ZM317.186 141.776C317.442 141.776 317.67 141.696 317.87 141.536C318.078 141.376 318.242 141.104 318.362 140.72C318.482 140.336 318.542 139.816 318.542 139.16C318.542 138.496 318.482 137.98 318.362 137.612C318.242 137.236 318.078 136.976 317.87 136.832C317.67 136.68 317.442 136.604 317.186 136.604C316.938 136.604 316.71 136.68 316.502 136.832C316.294 136.976 316.13 137.236 316.01 137.612C315.89 137.98 315.83 138.496 315.83 139.16C315.83 139.816 315.89 140.336 316.01 140.72C316.13 141.104 316.294 141.376 316.502 141.536C316.71 141.696 316.938 141.776 317.186 141.776ZM317.186 140.048C316.938 140.048 316.726 139.964 316.55 139.796C316.374 139.628 316.286 139.408 316.286 139.136C316.286 138.856 316.374 138.636 316.55 138.476C316.726 138.308 316.938 138.224 317.186 138.224C317.442 138.224 317.654 138.308 317.822 138.476C317.998 138.636 318.086 138.856 318.086 139.136C318.086 139.408 317.998 139.628 317.822 139.796C317.654 139.964 317.442 140.048 317.186 140.048ZM324.381 143.144C323.797 143.144 323.285 142.992 322.845 142.688C322.405 142.376 322.061 141.924 321.813 141.332C321.573 140.74 321.453 140.016 321.453 139.16C321.453 137.856 321.721 136.876 322.257 136.22C322.793 135.564 323.501 135.236 324.381 135.236C325.269 135.236 325.977 135.564 326.505 136.22C327.041 136.876 327.309 137.856 327.309 139.16C327.309 140.016 327.185 140.74 326.937 141.332C326.697 141.924 326.357 142.376 325.917 142.688C325.485 142.992 324.973 143.144 324.381 143.144ZM324.381 141.776C324.637 141.776 324.865 141.696 325.065 141.536C325.273 141.376 325.437 141.104 325.557 140.72C325.677 140.336 325.737 139.816 325.737 139.16C325.737 138.496 325.677 137.98 325.557 137.612C325.437 137.236 325.273 136.976 325.065 136.832C324.865 136.68 324.637 136.604 324.381 136.604C324.133 136.604 323.905 136.68 323.697 136.832C323.489 136.976 323.325 137.236 323.205 137.612C323.085 137.98 323.025 138.496 323.025 139.16C323.025 139.816 323.085 140.336 323.205 140.72C323.325 141.104 323.489 141.376 323.697 141.536C323.905 141.696 324.133 141.776 324.381 141.776ZM324.381 140.048C324.133 140.048 323.921 139.964 323.745 139.796C323.569 139.628 323.481 139.408 323.481 139.136C323.481 138.856 323.569 138.636 323.745 138.476C323.921 138.308 324.133 138.224 324.381 138.224C324.637 138.224 324.849 138.308 325.017 138.476C325.193 138.636 325.281 138.856 325.281 139.136C325.281 139.408 325.193 139.628 325.017 139.796C324.849 139.964 324.637 140.048 324.381 140.048Z" fill="#EB5757"/>
<g clip-path="url(#clip10_231_6153)">
<g clip-path="url(#clip11_231_6153)">
<rect x="171" y="190" width="48" height="35" rx="8" fill="url(#paint1_linear_231_6153)"/>
</g>
<path d="M188.753 211V209.572H190.805V205.168H189.113V204.076C189.457 204.02 189.753 203.964 190.001 203.908C190.257 203.844 190.485 203.772 190.685 203.692C190.885 203.604 191.081 203.5 191.273 203.38H192.569V209.572H194.297V211H188.753ZM195.696 211V203.176H197.544L198.312 205.948L198.576 207.028H198.624L198.888 205.948L199.656 203.176H201.504V211H200.016V208.576C200.016 208.36 200.024 208.092 200.04 207.772C200.056 207.444 200.076 207.104 200.1 206.752C200.124 206.4 200.148 206.064 200.172 205.744C200.204 205.424 200.228 205.16 200.244 204.952H200.208L199.608 207.04L199.008 208.924H198.144L197.532 207.04L196.968 204.952H196.932C196.948 205.16 196.968 205.424 196.992 205.744C197.024 206.064 197.052 206.4 197.076 206.752C197.1 207.104 197.12 207.444 197.136 207.772C197.152 208.092 197.16 208.36 197.16 208.576V211H195.696Z" fill="#F7F7F7"/>
</g>
<path d="M1 149L328 148" stroke="#EB5757" stroke-width="2" stroke-dasharray="6 6"/>
<path d="M2 73L329 72" stroke="#6FCF97" stroke-opacity="0.8" stroke-width="2" stroke-dasharray="6 6"/>
<path d="M1 112L328 111" stroke="#AC90FF" stroke-width="2"/>
<circle cx="246" cy="165" r="3" fill="#8146EB"/>
<defs>
<linearGradient id="paint0_linear_231_6153" x1="0" y1="101.625" x2="0" y2="177" gradientUnits="userSpaceOnUse">
<stop stop-color="#8124E5"/>
<stop offset="1" stop-color="#00A7FF" stop-opacity="0.01"/>
</linearGradient>
<linearGradient id="paint1_linear_231_6153" x1="202.022" y1="274" x2="141.678" y2="265.512" gradientUnits="userSpaceOnUse">
<stop stop-color="#5EA0FD"/>
<stop offset="1" stop-color="#0B6FFB"/>
</linearGradient>
<clipPath id="clip0_231_6153">
<rect width="48" height="32" fill="white" transform="translate(0 193)"/>
</clipPath>
<clipPath id="clip1_231_6153">
<rect width="48" height="32" fill="white" transform="translate(0 193)"/>
</clipPath>
<clipPath id="clip2_231_6153">
<rect width="48" height="32" fill="white" transform="translate(112 193)"/>
</clipPath>
<clipPath id="clip3_231_6153">
<rect width="48" height="32" fill="white" transform="translate(112 193)"/>
</clipPath>
<clipPath id="clip4_231_6153">
<rect width="48" height="32" fill="white" transform="translate(56 193)"/>
</clipPath>
<clipPath id="clip5_231_6153">
<rect width="48" height="32" fill="white" transform="translate(56 193)"/>
</clipPath>
<clipPath id="clip6_231_6153">
<rect width="48" height="32" fill="white" transform="translate(224 193)"/>
</clipPath>
<clipPath id="clip7_231_6153">
<rect width="48" height="32" fill="white" transform="translate(224 193)"/>
</clipPath>
<clipPath id="clip8_231_6153">
<rect width="48" height="32" fill="white" transform="translate(280 193)"/>
</clipPath>
<clipPath id="clip9_231_6153">
<rect width="48" height="32" fill="white" transform="translate(280 193)"/>
</clipPath>
<clipPath id="clip10_231_6153">
<rect width="48" height="34.5706" fill="white" transform="translate(171 190)"/>
</clipPath>
<clipPath id="clip11_231_6153">
<rect width="48" height="35" fill="white" transform="translate(171 190)"/>
</clipPath>
</defs>
</svg>
