<svg width="24" height="25" viewBox="0 0 24 25" fill="none" xmlns="http://www.w3.org/2000/svg">
<circle cx="12" cy="12.5" r="12" fill="#09080C"/>
<path d="M16.4832 17.327V15.3967C16.4832 15.0699 16.2417 14.8049 15.9438 14.8049C15.6459 14.8049 15.4044 15.0699 15.4044 15.3967V17.7638C14.2842 18.1576 13.1121 18.3444 11.9361 18.3165C10.8031 18.3476 9.67357 18.1675 8.59555 17.7839V15.3233C8.59555 14.9965 8.35405 14.7315 8.05614 14.7315C7.75824 14.7315 7.51674 14.9965 7.51674 15.3233V17.3199C7.36378 17.3346 7.22402 17.4208 7.13321 17.5566C6.9569 17.8201 7.0086 18.1904 7.24872 18.3839L7.25026 18.3851C7.30743 18.4301 8.67806 19.5 11.9361 19.5C15.18 19.5 16.6677 18.4455 16.7292 18.4011C16.9752 18.2211 17.0433 17.8574 16.8819 17.5856C16.7922 17.4369 16.6452 17.3416 16.4832 17.327ZM11.8972 14.9487C15.1423 14.9487 16.6677 13.8599 16.7308 13.8137C16.9762 13.6328 17.0431 13.2688 16.8808 12.9977C16.7905 12.8509 16.6441 12.7574 16.4832 12.7438V10.2341C16.4832 9.9073 16.2417 9.64235 15.9438 9.64235C15.6459 9.64235 15.4044 9.9073 15.4044 10.2341V13.1847C14.2744 13.596 13.0886 13.7922 11.8983 13.7646C10.777 13.7981 9.65924 13.6135 8.5966 13.2196V10.298C8.5966 9.9712 8.3551 9.70626 8.0572 9.70626C7.75929 9.70626 7.51779 9.9712 7.51779 10.298V12.7349C7.22143 12.7681 7.0057 13.0586 7.03594 13.3837C7.05073 13.5428 7.12356 13.6885 7.23783 13.7877C7.29233 13.835 8.62951 14.9487 11.8972 14.9487ZM12.0003 10.1962C14.4082 10.1962 17 9.46184 17 7.84989C17 6.23794 14.4082 5.5 12.0003 5.5C9.59236 5.5 7 6.23439 7 7.84753C7 9.46066 9.59236 10.1962 12.0003 10.1962ZM12.0003 6.6859C14.5473 6.6859 15.9212 7.51437 15.9212 7.84989C15.9212 8.18542 14.5473 9.0127 12.0003 9.0127C9.45322 9.0127 8.07879 8.18424 8.07879 7.84989C8.07879 7.51555 9.45319 6.68354 12.0002 6.68354L12.0003 6.6859ZM13.468 8.4458C14.0532 8.4458 14.5273 8.17418 14.5273 7.83806C14.5273 7.50195 14.0532 7.23033 13.468 7.23033C12.8827 7.23033 12.4086 7.50254 12.4086 7.83806C12.4086 8.17359 12.8816 8.4458 13.468 8.4458Z" fill="url(#paint0_linear_148_7907)"/>
<defs>
<linearGradient id="paint0_linear_148_7907" x1="7" y1="12.5" x2="17" y2="12.5" gradientUnits="userSpaceOnUse">
<stop stop-color="#0D3D8C"/>
<stop offset="0.016" stop-color="#0C3F90"/>
<stop offset="0.1095" stop-color="#0A4BA5"/>
<stop offset="0.2024" stop-color="#0852B1"/>
<stop offset="0.2933" stop-color="#0854B5"/>
<stop offset="0.3564" stop-color="#095CB8"/>
<stop offset="0.6531" stop-color="#0D7DC4"/>
<stop offset="0.8161" stop-color="#0E89C8"/>
</linearGradient>
</defs>
</svg>
